<mxfile host="Electron" modified="2023-05-09T17:50:35.822Z" agent="Mozilla/5.0 (Macintosh; Intel Mac OS X 10_15_7) AppleWebKit/537.36 (KHTML, like Gecko) draw.io/21.2.1 Chrome/112.0.5615.87 Electron/24.1.2 Safari/537.36" etag="FU1Sn-CQEIDvp7lyG9Nq" version="21.2.1" type="device" pages="8">
  <diagram name="Memory Layout" id="gpaBdGuDyD1fxjy90Zt0">
    <mxGraphModel dx="2406" dy="919" grid="1" gridSize="10" guides="1" tooltips="1" connect="1" arrows="1" fold="1" page="1" pageScale="1" pageWidth="1100" pageHeight="850" math="0" shadow="0">
      <root>
        <mxCell id="0" />
        <mxCell id="1" style="" parent="0" />
        <mxCell id="MuAhsDIG3eYxc78xlIdj-3" value="priv domains" style="" parent="0" visible="0" />
        <mxCell id="RuIJp9R6sHRrT9T8ntiw-9" value="" style="rounded=1;whiteSpace=wrap;html=1;strokeColor=none;strokeWidth=3;fontFamily=Courier New;fontSize=12;fontColor=default;fillColor=#FFB366;arcSize=3;dashed=1;dashPattern=1 1;fillStyle=hatch;opacity=40;fontStyle=1" parent="MuAhsDIG3eYxc78xlIdj-3" vertex="1">
          <mxGeometry x="560" y="230" width="540" height="260" as="geometry" />
        </mxCell>
        <mxCell id="RuIJp9R6sHRrT9T8ntiw-10" value="" style="rounded=1;whiteSpace=wrap;html=1;strokeColor=#333333;strokeWidth=2;fontFamily=Courier New;fontSize=12;fontColor=default;fillColor=none;arcSize=6;" parent="MuAhsDIG3eYxc78xlIdj-3" vertex="1">
          <mxGeometry y="230" width="1100" height="260" as="geometry" />
        </mxCell>
        <mxCell id="RuIJp9R6sHRrT9T8ntiw-6" value="" style="rounded=1;whiteSpace=wrap;html=1;strokeColor=none;strokeWidth=3;fontFamily=Courier New;fontSize=12;fontColor=default;fillColor=#66B2FF;arcSize=3;dashed=1;dashPattern=1 1;fillStyle=hatch;opacity=40;" parent="MuAhsDIG3eYxc78xlIdj-3" vertex="1">
          <mxGeometry y="230" width="540" height="260" as="geometry" />
        </mxCell>
        <mxCell id="RuIJp9R6sHRrT9T8ntiw-4" value="&lt;font style=&quot;font-size: 19px;&quot;&gt;User Privilege Domain&lt;/font&gt;" style="text;html=1;align=center;verticalAlign=middle;resizable=0;points=[];autosize=1;strokeColor=none;fillColor=none;fontSize=19;fontFamily=Courier New;fontStyle=1;labelBorderColor=none;rounded=1;strokeWidth=2;labelBackgroundColor=#D4E1F5;" parent="MuAhsDIG3eYxc78xlIdj-3" vertex="1">
          <mxGeometry x="280" y="230" width="260" height="40" as="geometry" />
        </mxCell>
        <mxCell id="RuIJp9R6sHRrT9T8ntiw-5" value="&lt;font style=&quot;font-size: 19px;&quot;&gt;Kernel Privilege Domain&lt;/font&gt;" style="text;html=1;align=center;verticalAlign=middle;resizable=0;points=[];autosize=1;strokeColor=none;fillColor=none;fontSize=19;fontFamily=Courier New;fontStyle=1;labelBorderColor=none;rounded=1;strokeWidth=2;labelBackgroundColor=#FFF3E3;" parent="MuAhsDIG3eYxc78xlIdj-3" vertex="1">
          <mxGeometry x="550" y="230" width="290" height="40" as="geometry" />
        </mxCell>
        <mxCell id="_sn4FLv9iJYR4ue0YrOv-1" value="priv domains after" style="" parent="0" />
        <mxCell id="_sn4FLv9iJYR4ue0YrOv-2" value="" style="rounded=1;whiteSpace=wrap;html=1;strokeColor=none;strokeWidth=3;fontFamily=Courier New;fontSize=12;fontColor=default;fillColor=#FFB366;arcSize=3;dashed=1;dashPattern=1 1;fillStyle=hatch;opacity=40;fontStyle=1" parent="_sn4FLv9iJYR4ue0YrOv-1" vertex="1">
          <mxGeometry x="560" y="230" width="540" height="260" as="geometry" />
        </mxCell>
        <mxCell id="_sn4FLv9iJYR4ue0YrOv-3" value="" style="rounded=1;whiteSpace=wrap;html=1;strokeColor=#333333;strokeWidth=2;fontFamily=Courier New;fontSize=12;fontColor=default;fillColor=none;arcSize=6;" parent="_sn4FLv9iJYR4ue0YrOv-1" vertex="1">
          <mxGeometry y="230" width="1100" height="260" as="geometry" />
        </mxCell>
        <mxCell id="_sn4FLv9iJYR4ue0YrOv-4" value="" style="rounded=1;whiteSpace=wrap;html=1;strokeColor=none;strokeWidth=3;fontFamily=Courier New;fontSize=12;fontColor=default;fillColor=#FFB366;arcSize=3;dashed=1;dashPattern=1 1;fillStyle=hatch;opacity=40;fontStyle=1;" parent="_sn4FLv9iJYR4ue0YrOv-1" vertex="1">
          <mxGeometry y="230" width="540" height="260" as="geometry" />
        </mxCell>
        <mxCell id="_sn4FLv9iJYR4ue0YrOv-6" value="&lt;font style=&quot;font-size: 19px;&quot;&gt;Kernel Privilege Domain&lt;/font&gt;" style="text;html=1;align=center;verticalAlign=middle;resizable=0;points=[];autosize=1;strokeColor=none;fillColor=none;fontSize=19;fontFamily=Courier New;fontStyle=1;labelBorderColor=none;rounded=1;strokeWidth=2;labelBackgroundColor=#FFF3E3;" parent="_sn4FLv9iJYR4ue0YrOv-1" vertex="1">
          <mxGeometry x="550" y="230" width="290" height="40" as="geometry" />
        </mxCell>
        <mxCell id="_sn4FLv9iJYR4ue0YrOv-7" value="&lt;font style=&quot;font-size: 19px;&quot;&gt;Kernel Privilege Domain&lt;/font&gt;" style="text;html=1;align=center;verticalAlign=middle;resizable=0;points=[];autosize=1;strokeColor=none;fillColor=none;fontSize=19;fontFamily=Courier New;fontStyle=1;labelBorderColor=none;rounded=1;strokeWidth=2;labelBackgroundColor=#FFF3E3;" parent="_sn4FLv9iJYR4ue0YrOv-1" vertex="1">
          <mxGeometry x="260" y="230" width="290" height="40" as="geometry" />
        </mxCell>
        <mxCell id="Omh9yc2a9QtZRBkzNb_v-5" value="gray shade" style="" parent="0" />
        <mxCell id="Omh9yc2a9QtZRBkzNb_v-16" value="&lt;font face=&quot;Courier New&quot; style=&quot;font-size: 13px;&quot;&gt;0x0&lt;/font&gt;" style="text;html=1;align=center;verticalAlign=middle;resizable=0;points=[];autosize=1;strokeColor=none;fillColor=none;fontSize=13;" parent="Omh9yc2a9QtZRBkzNb_v-5" vertex="1">
          <mxGeometry x="-0.0026415094339640177" y="440" width="50" height="30" as="geometry" />
        </mxCell>
        <mxCell id="Omh9yc2a9QtZRBkzNb_v-17" value="&lt;font face=&quot;Courier New&quot; style=&quot;font-size: 13px;&quot;&gt;0x7fff-ffff-ffff&lt;/font&gt;" style="text;html=1;align=center;verticalAlign=middle;resizable=0;points=[];autosize=1;strokeColor=none;fillColor=none;fontSize=13;" parent="Omh9yc2a9QtZRBkzNb_v-5" vertex="1">
          <mxGeometry x="402.35849056603774" y="440" width="150" height="30" as="geometry" />
        </mxCell>
        <mxCell id="Omh9yc2a9QtZRBkzNb_v-12" value="" style="rounded=0;whiteSpace=wrap;html=1;strokeWidth=1;fillColor=#B3B3B3;container=0;treeFolding=0;treeMoving=0;strokeColor=none;" parent="Omh9yc2a9QtZRBkzNb_v-5" vertex="1">
          <mxGeometry x="10" y="300" width="519.7" height="140" as="geometry" />
        </mxCell>
        <mxCell id="Omh9yc2a9QtZRBkzNb_v-13" value="" style="triangle;whiteSpace=wrap;html=1;strokeWidth=0;fillColor=#B3B3B3;container=0;strokeColor=#E6E6E6;rotation=-180;flipH=1;" parent="Omh9yc2a9QtZRBkzNb_v-5" vertex="1">
          <mxGeometry x="529.6992481203008" y="356" width="16.2406015037594" height="56" as="geometry" />
        </mxCell>
        <mxCell id="Omh9yc2a9QtZRBkzNb_v-14" value="" style="triangle;whiteSpace=wrap;html=1;strokeWidth=0;fillColor=#B3B3B3;container=0;strokeColor=#E6E6E6;flipV=0;rotation=-180;flipH=1;" parent="Omh9yc2a9QtZRBkzNb_v-5" vertex="1">
          <mxGeometry x="529.6992481203008" y="300" width="16.2406015037594" height="56" as="geometry" />
        </mxCell>
        <mxCell id="Omh9yc2a9QtZRBkzNb_v-15" value="" style="verticalLabelPosition=bottom;verticalAlign=top;html=1;shape=mxgraph.basic.orthogonal_triangle;strokeWidth=0;fillColor=#B3B3B3;container=0;strokeColor=none;rotation=0;flipV=0;flipH=0;" parent="Omh9yc2a9QtZRBkzNb_v-5" vertex="1">
          <mxGeometry x="529.6992481203008" y="412" width="16.2406015037594" height="28" as="geometry" />
        </mxCell>
        <mxCell id="Omh9yc2a9QtZRBkzNb_v-8" value="" style="rounded=0;whiteSpace=wrap;html=1;strokeWidth=1;fillColor=#B3B3B3;container=0;treeFolding=0;treeMoving=0;strokeColor=none;" parent="Omh9yc2a9QtZRBkzNb_v-5" vertex="1">
          <mxGeometry x="570.3007518796992" y="300" width="519.6992481203008" height="140" as="geometry" />
        </mxCell>
        <mxCell id="Omh9yc2a9QtZRBkzNb_v-9" value="" style="triangle;whiteSpace=wrap;html=1;strokeWidth=0;fillColor=#B3B3B3;container=0;strokeColor=#E6E6E6;rotation=-180;" parent="Omh9yc2a9QtZRBkzNb_v-5" vertex="1">
          <mxGeometry x="554.0601503759398" y="328" width="16.2406015037594" height="56" as="geometry" />
        </mxCell>
        <mxCell id="Omh9yc2a9QtZRBkzNb_v-10" value="" style="triangle;whiteSpace=wrap;html=1;strokeWidth=0;fillColor=#B3B3B3;container=0;strokeColor=#E6E6E6;flipV=0;rotation=-180;" parent="Omh9yc2a9QtZRBkzNb_v-5" vertex="1">
          <mxGeometry x="554.0601503759398" y="384" width="16.2406015037594" height="56" as="geometry" />
        </mxCell>
        <mxCell id="Omh9yc2a9QtZRBkzNb_v-11" value="" style="verticalLabelPosition=bottom;verticalAlign=top;html=1;shape=mxgraph.basic.orthogonal_triangle;strokeWidth=0;fillColor=#B3B3B3;container=0;strokeColor=none;rotation=0;flipV=1;flipH=1;" parent="Omh9yc2a9QtZRBkzNb_v-5" vertex="1">
          <mxGeometry x="554.0601503759398" y="300" width="16.2406015037594" height="28" as="geometry" />
        </mxCell>
        <mxCell id="_sn4FLv9iJYR4ue0YrOv-8" value="&lt;font face=&quot;Courier New&quot; style=&quot;font-size: 13px;&quot;&gt;0xffff-ffff-...-ffff&lt;/font&gt;" style="text;html=1;align=center;verticalAlign=middle;resizable=0;points=[];autosize=1;strokeColor=none;fillColor=none;fontSize=13;" parent="Omh9yc2a9QtZRBkzNb_v-5" vertex="1">
          <mxGeometry x="924.9984905660377" y="440" width="180" height="30" as="geometry" />
        </mxCell>
        <mxCell id="Omh9yc2a9QtZRBkzNb_v-18" value="boxes" style="locked=1;" parent="0" />
        <mxCell id="Omh9yc2a9QtZRBkzNb_v-19" value="Code" style="rounded=1;whiteSpace=wrap;html=1;strokeColor=#666666;fillColor=#ABC7FF;strokeWidth=2;fontFamily=Courier New;fontStyle=0;fontSize=19;" parent="Omh9yc2a9QtZRBkzNb_v-18" vertex="1">
          <mxGeometry x="20" y="310" width="74.46808510638299" height="120" as="geometry" />
        </mxCell>
        <mxCell id="Omh9yc2a9QtZRBkzNb_v-24" value="Data" style="rounded=1;whiteSpace=wrap;html=1;strokeColor=#666666;fillColor=#ABC7FF;strokeWidth=2;fontFamily=Courier New;fontStyle=0;fontSize=19;" parent="Omh9yc2a9QtZRBkzNb_v-18" vertex="1">
          <mxGeometry x="105.10638297872342" y="310" width="74.46808510638299" height="120" as="geometry" />
        </mxCell>
        <mxCell id="Omh9yc2a9QtZRBkzNb_v-25" value="Heap" style="rounded=1;whiteSpace=wrap;html=1;strokeColor=#666666;fillColor=#ABC7FF;strokeWidth=2;fontFamily=Courier New;fontStyle=0;fontSize=19;" parent="Omh9yc2a9QtZRBkzNb_v-18" vertex="1">
          <mxGeometry x="190.21276595744683" y="310" width="74.46808510638299" height="120" as="geometry" />
        </mxCell>
        <mxCell id="Omh9yc2a9QtZRBkzNb_v-26" value="mmap" style="rounded=1;whiteSpace=wrap;html=1;strokeColor=#666666;fillColor=#ABC7FF;strokeWidth=2;fontFamily=Courier New;fontStyle=0;fontSize=19;" parent="Omh9yc2a9QtZRBkzNb_v-18" vertex="1">
          <mxGeometry x="275.3191489361702" y="310" width="74.46808510638299" height="120" as="geometry" />
        </mxCell>
        <mxCell id="Omh9yc2a9QtZRBkzNb_v-27" value="Stack" style="rounded=1;whiteSpace=wrap;html=1;strokeColor=#666666;fillColor=#ABC7FF;strokeWidth=2;fontFamily=Courier New;fontStyle=0;fontSize=19;" parent="Omh9yc2a9QtZRBkzNb_v-18" vertex="1">
          <mxGeometry x="360.42553191489367" y="310" width="74.46808510638299" height="120" as="geometry" />
        </mxCell>
        <mxCell id="Omh9yc2a9QtZRBkzNb_v-28" value="VDSO" style="rounded=1;whiteSpace=wrap;html=1;strokeColor=#666666;fillColor=#ABC7FF;strokeWidth=2;fontFamily=Courier New;fontStyle=0;fontSize=19;" parent="Omh9yc2a9QtZRBkzNb_v-18" vertex="1">
          <mxGeometry x="445.53191489361706" y="310" width="74.46808510638299" height="120" as="geometry" />
        </mxCell>
        <mxCell id="K80nLfR09D1FMI3wz3Ed-1" value="Before" style="locked=1;" parent="0" visible="0" />
        <mxCell id="K80nLfR09D1FMI3wz3Ed-4" value="" style="rounded=1;whiteSpace=wrap;html=1;strokeColor=#666666;fillColor=#FFDFB0;strokeWidth=2;fontFamily=Courier New;fontStyle=0;fontSize=19;" parent="K80nLfR09D1FMI3wz3Ed-1" vertex="1">
          <mxGeometry x="930" y="310" width="150" height="120" as="geometry" />
        </mxCell>
        <mxCell id="K80nLfR09D1FMI3wz3Ed-5" value="" style="rounded=1;whiteSpace=wrap;html=1;strokeColor=#666666;fillColor=#FFDFB0;strokeWidth=2;fontFamily=Courier New;fontStyle=0;fontSize=19;" parent="K80nLfR09D1FMI3wz3Ed-1" vertex="1">
          <mxGeometry x="600" y="310" width="320" height="120" as="geometry" />
        </mxCell>
        <mxCell id="K80nLfR09D1FMI3wz3Ed-2" value="&lt;span style=&quot;background-color: rgb(255, 223, 176);&quot;&gt;kmalloc + vmalloc area&lt;/span&gt;" style="rounded=1;whiteSpace=wrap;html=1;strokeColor=#666666;fillColor=none;strokeWidth=2;fontFamily=Courier New;fontStyle=0;fontSize=19;fillStyle=auto;opacity=40;" parent="K80nLfR09D1FMI3wz3Ed-1" vertex="1">
          <mxGeometry x="600" y="310" width="320" height="120" as="geometry" />
        </mxCell>
        <mxCell id="K80nLfR09D1FMI3wz3Ed-3" value="&lt;span style=&quot;background-color: rgb(255, 223, 176);&quot;&gt;Kernel Binary&lt;/span&gt;" style="rounded=1;whiteSpace=wrap;html=1;strokeColor=#666666;fillColor=none;strokeWidth=2;fontFamily=Courier New;fontStyle=0;fontSize=19;fillStyle=hatch;opacity=40;" parent="K80nLfR09D1FMI3wz3Ed-1" vertex="1">
          <mxGeometry x="930" y="310" width="150" height="120" as="geometry" />
        </mxCell>
        <mxCell id="wbEtidaRzfx27PacMzpc-8" value="After" style="" parent="0" />
        <mxCell id="wbEtidaRzfx27PacMzpc-42" value="" style="rounded=1;whiteSpace=wrap;html=1;strokeColor=none;fillColor=#4D4D4D;strokeWidth=2;fontFamily=Courier New;fontStyle=0;fontSize=19;opacity=50;" parent="wbEtidaRzfx27PacMzpc-8" vertex="1">
          <mxGeometry x="105.53" y="310" width="74.46808510638299" height="120" as="geometry" />
        </mxCell>
        <mxCell id="wbEtidaRzfx27PacMzpc-41" value="" style="rounded=1;whiteSpace=wrap;html=1;strokeColor=none;fillColor=#4D4D4D;strokeWidth=2;fontFamily=Courier New;fontStyle=0;fontSize=19;opacity=50;" parent="wbEtidaRzfx27PacMzpc-8" vertex="1">
          <mxGeometry x="20" y="310" width="74.46808510638299" height="120" as="geometry" />
        </mxCell>
        <mxCell id="wbEtidaRzfx27PacMzpc-11" value="" style="shape=cross;whiteSpace=wrap;html=1;rounded=1;strokeColor=#000000;strokeWidth=1.5;fontFamily=Courier New;fontSize=12;fontColor=default;fillColor=#808080;rotation=-45;size=0.10606601717798156;" parent="wbEtidaRzfx27PacMzpc-8" vertex="1">
          <mxGeometry x="12.229999999999997" y="325" width="90" height="90" as="geometry" />
        </mxCell>
        <mxCell id="wbEtidaRzfx27PacMzpc-12" value="" style="shape=cross;whiteSpace=wrap;html=1;rounded=1;strokeColor=#000000;strokeWidth=1.5;fontFamily=Courier New;fontSize=12;fontColor=default;fillColor=#808080;rotation=-45;size=0.10606601717798156;" parent="wbEtidaRzfx27PacMzpc-8" vertex="1">
          <mxGeometry x="97.76" y="325" width="90" height="90" as="geometry" />
        </mxCell>
        <mxCell id="wbEtidaRzfx27PacMzpc-33" value="" style="rounded=1;whiteSpace=wrap;html=1;strokeColor=#666666;fillColor=#FFDFB0;strokeWidth=2;fontFamily=Courier New;fontStyle=0;fontSize=19;container=0;" parent="wbEtidaRzfx27PacMzpc-8" vertex="1">
          <mxGeometry x="929.94" y="310" width="150" height="120" as="geometry" />
        </mxCell>
        <mxCell id="wbEtidaRzfx27PacMzpc-34" value="" style="rounded=1;whiteSpace=wrap;html=1;strokeColor=#666666;fillColor=#FFDFB0;strokeWidth=2;fontFamily=Courier New;fontStyle=0;fontSize=19;container=0;" parent="wbEtidaRzfx27PacMzpc-8" vertex="1">
          <mxGeometry x="599.9401503759398" y="310" width="164.06" height="120" as="geometry" />
        </mxCell>
        <mxCell id="wbEtidaRzfx27PacMzpc-35" value="&lt;span style=&quot;background-color: rgb(255, 223, 176);&quot;&gt;kmalloc + vmalloc area&lt;/span&gt;" style="rounded=1;whiteSpace=wrap;html=1;strokeColor=#666666;fillColor=none;strokeWidth=2;fontFamily=Courier New;fontStyle=0;fontSize=19;fillStyle=hatch;opacity=40;container=0;" parent="wbEtidaRzfx27PacMzpc-8" vertex="1">
          <mxGeometry x="599.9401503759398" y="310" width="164.06" height="120" as="geometry" />
        </mxCell>
        <mxCell id="wbEtidaRzfx27PacMzpc-36" value="&lt;span style=&quot;background-color: rgb(255, 223, 176);&quot;&gt;Kernel Binary&lt;/span&gt;" style="rounded=1;whiteSpace=wrap;html=1;strokeColor=#666666;fillColor=none;strokeWidth=2;fontFamily=Courier New;fontStyle=0;fontSize=19;fillStyle=hatch;opacity=40;container=0;" parent="wbEtidaRzfx27PacMzpc-8" vertex="1">
          <mxGeometry x="929.94" y="310" width="150" height="120" as="geometry" />
        </mxCell>
        <mxCell id="wbEtidaRzfx27PacMzpc-44" value="Code" style="rounded=1;whiteSpace=wrap;html=1;strokeColor=#666666;fillColor=#ABC7FF;strokeWidth=2;fontFamily=Courier New;fontStyle=0;fontSize=19;container=0;" parent="wbEtidaRzfx27PacMzpc-8" vertex="1">
          <mxGeometry x="770.0027659574469" y="310" width="74.46808510638299" height="120" as="geometry" />
        </mxCell>
        <mxCell id="wbEtidaRzfx27PacMzpc-45" value="Data" style="rounded=1;whiteSpace=wrap;html=1;strokeColor=#666666;fillColor=#ABC7FF;strokeWidth=2;fontFamily=Courier New;fontStyle=0;fontSize=19;container=0;" parent="wbEtidaRzfx27PacMzpc-8" vertex="1">
          <mxGeometry x="850.0027659574469" y="310" width="74.46808510638299" height="120" as="geometry" />
        </mxCell>
        <mxCell id="RuIJp9R6sHRrT9T8ntiw-1" value="boundary" style="locked=1;" parent="0" />
        <mxCell id="RuIJp9R6sHRrT9T8ntiw-2" value="&lt;pre style=&quot;font-size: 16px;&quot;&gt;&lt;br&gt;&lt;/pre&gt;" style="shape=link;html=1;rounded=1;labelBackgroundColor=none;fontSize=16;endArrow=none;endFill=0;strokeWidth=6;labelPosition=center;verticalLabelPosition=top;align=center;verticalAlign=bottom;spacingBottom=-11;fontFamily=Courier New;fontColor=default;" parent="RuIJp9R6sHRrT9T8ntiw-1" edge="1">
          <mxGeometry x="0.0746" y="-140" width="100" relative="1" as="geometry">
            <mxPoint x="550" y="490" as="sourcePoint" />
            <mxPoint x="550" y="230" as="targetPoint" />
            <Array as="points" />
            <mxPoint as="offset" />
          </mxGeometry>
        </mxCell>
      </root>
    </mxGraphModel>
  </diagram>
  <diagram id="SMm8kPEjsQLozFlzvmyr" name="Process">
    <mxGraphModel dx="1306" dy="919" grid="1" gridSize="10" guides="1" tooltips="1" connect="1" arrows="1" fold="1" page="1" pageScale="1" pageWidth="850" pageHeight="1100" math="0" shadow="0">
      <root>
        <mxCell id="0" />
        <mxCell id="1" style="" parent="0" visible="0" />
        <mxCell id="dNX773PHdtzjreDsDfFc-61" value="" style="rounded=0;whiteSpace=wrap;html=1;strokeColor=none;strokeWidth=1.5;fontFamily=Courier New;fontSize=12;fontColor=default;fillColor=#808080;opacity=40;" parent="1" vertex="1">
          <mxGeometry x="70" y="110" width="600" height="140" as="geometry" />
        </mxCell>
        <mxCell id="dNX773PHdtzjreDsDfFc-62" value="" style="rounded=0;whiteSpace=wrap;html=1;strokeColor=none;strokeWidth=1.5;fontFamily=Courier New;fontSize=12;fontColor=default;fillColor=#CCCCCC;opacity=40;" parent="1" vertex="1">
          <mxGeometry x="70" y="250" width="600" height="490" as="geometry" />
        </mxCell>
        <mxCell id="dNX773PHdtzjreDsDfFc-82" value="Base Model Background" style="locked=1;" parent="0" visible="0" />
        <mxCell id="dNX773PHdtzjreDsDfFc-83" value="" style="endArrow=none;html=1;rounded=0;fontFamily=Courier New;fontSize=12;fontColor=default;entryX=0.5;entryY=1;entryDx=0;entryDy=0;strokeWidth=67;strokeColor=#FFF4C3;opacity=40;" parent="dNX773PHdtzjreDsDfFc-82" target="dNX773PHdtzjreDsDfFc-60" edge="1">
          <mxGeometry width="50" height="50" relative="1" as="geometry">
            <mxPoint x="186" y="487" as="sourcePoint" />
            <mxPoint x="400" y="470" as="targetPoint" />
            <Array as="points">
              <mxPoint x="186" y="330" />
            </Array>
          </mxGeometry>
        </mxCell>
        <mxCell id="dNX773PHdtzjreDsDfFc-99" value="Bypass Background" style="locked=1;" parent="0" />
        <mxCell id="dNX773PHdtzjreDsDfFc-101" value="" style="endArrow=none;html=1;rounded=0;fontFamily=Courier New;fontSize=12;fontColor=default;strokeWidth=50;strokeColor=#FFCC99;opacity=40;" parent="dNX773PHdtzjreDsDfFc-99" edge="1">
          <mxGeometry width="50" height="50" relative="1" as="geometry">
            <mxPoint x="250" y="460" as="sourcePoint" />
            <mxPoint x="438" y="430" as="targetPoint" />
            <Array as="points">
              <mxPoint x="250" y="430" />
            </Array>
          </mxGeometry>
        </mxCell>
        <mxCell id="dNX773PHdtzjreDsDfFc-103" value="Shortcut Background" style="locked=1;" parent="0" />
        <mxCell id="dNX773PHdtzjreDsDfFc-105" value="" style="endArrow=none;html=1;rounded=0;fontFamily=Courier New;fontSize=12;fontColor=default;strokeWidth=50;strokeColor=#CC7825;opacity=30;" parent="dNX773PHdtzjreDsDfFc-103" edge="1">
          <mxGeometry width="50" height="50" relative="1" as="geometry">
            <mxPoint x="240" y="570" as="sourcePoint" />
            <mxPoint x="437" y="611" as="targetPoint" />
            <Array as="points">
              <mxPoint x="240" y="610" />
            </Array>
          </mxGeometry>
        </mxCell>
        <mxCell id="dNX773PHdtzjreDsDfFc-27" value="Normie" style="locked=1;" parent="0" />
        <mxCell id="dNX773PHdtzjreDsDfFc-69" value="&lt;pre style=&quot;font-size: 16px;&quot;&gt;&lt;br&gt;&lt;/pre&gt;" style="shape=link;html=1;rounded=1;labelBackgroundColor=none;fontSize=16;endArrow=none;endFill=0;strokeWidth=4;labelPosition=center;verticalLabelPosition=top;align=center;verticalAlign=bottom;spacingBottom=-11;fontFamily=Courier New;fontColor=default;strokeColor=#333333;" parent="dNX773PHdtzjreDsDfFc-27" edge="1">
          <mxGeometry width="100" relative="1" as="geometry">
            <mxPoint x="70" y="250" as="sourcePoint" />
            <mxPoint x="670" y="250" as="targetPoint" />
            <Array as="points" />
          </mxGeometry>
        </mxCell>
        <mxCell id="dNX773PHdtzjreDsDfFc-28" value="" style="ellipse;whiteSpace=wrap;html=1;aspect=fixed;rounded=1;strokeColor=#000000;strokeWidth=1.5;fontFamily=Courier New;fontSize=12;fontColor=default;fillColor=#B3B3B3;" parent="dNX773PHdtzjreDsDfFc-27" vertex="1">
          <mxGeometry x="427.5" y="267.5" width="25" height="25" as="geometry" />
        </mxCell>
        <mxCell id="dNX773PHdtzjreDsDfFc-32" value="" style="ellipse;whiteSpace=wrap;html=1;aspect=fixed;rounded=1;strokeColor=#000000;strokeWidth=1.5;fontFamily=Courier New;fontSize=12;fontColor=default;fillColor=#B3B3B3;" parent="dNX773PHdtzjreDsDfFc-27" vertex="1">
          <mxGeometry x="587.5" y="267.5" width="25" height="25" as="geometry" />
        </mxCell>
        <mxCell id="dNX773PHdtzjreDsDfFc-33" value="Syscall" style="text;html=1;align=center;verticalAlign=middle;resizable=0;points=[];autosize=1;strokeColor=none;fillColor=none;fontSize=14;fontFamily=Courier New;fontColor=default;" parent="dNX773PHdtzjreDsDfFc-27" vertex="1">
          <mxGeometry x="360" y="250" width="80" height="30" as="geometry" />
        </mxCell>
        <mxCell id="dNX773PHdtzjreDsDfFc-34" value="Sysret" style="text;html=1;align=center;verticalAlign=middle;resizable=0;points=[];autosize=1;strokeColor=none;fillColor=none;fontSize=14;fontFamily=Courier New;fontColor=default;" parent="dNX773PHdtzjreDsDfFc-27" vertex="1">
          <mxGeometry x="600" y="250" width="70" height="30" as="geometry" />
        </mxCell>
        <mxCell id="dNX773PHdtzjreDsDfFc-36" value="&lt;pre style=&quot;text-align: justify&quot;&gt;&lt;font face=&quot;Courier New&quot; style=&quot;font-size: 18px ; line-height: 1&quot;&gt;&lt;b&gt;User Process&lt;/b&gt;&lt;/font&gt;&lt;/pre&gt;" style="rounded=1;whiteSpace=wrap;html=1;strokeWidth=3;labelPosition=center;verticalLabelPosition=middle;align=center;verticalAlign=middle;horizontal=1;spacing=0;spacingBottom=0;fillColor=#D4E1F5;glass=0;labelBackgroundColor=none;fontSize=12;dashed=1;dashPattern=1 1;strokeColor=#003366;fontFamily=Courier New;fontColor=default;" parent="dNX773PHdtzjreDsDfFc-27" vertex="1">
          <mxGeometry x="390" y="150" width="260" height="70" as="geometry" />
        </mxCell>
        <mxCell id="dNX773PHdtzjreDsDfFc-37" value="" style="endArrow=none;html=1;rounded=0;fontFamily=Courier New;fontSize=12;fontColor=default;exitX=0.5;exitY=0;exitDx=0;exitDy=0;strokeWidth=4;strokeColor=#003366;" parent="dNX773PHdtzjreDsDfFc-27" source="dNX773PHdtzjreDsDfFc-28" edge="1">
          <mxGeometry width="50" height="50" relative="1" as="geometry">
            <mxPoint x="560" y="520" as="sourcePoint" />
            <mxPoint x="440" y="220" as="targetPoint" />
          </mxGeometry>
        </mxCell>
        <mxCell id="dNX773PHdtzjreDsDfFc-38" value="" style="endArrow=none;html=1;rounded=0;fontFamily=Courier New;fontSize=12;fontColor=default;exitX=0.5;exitY=0;exitDx=0;exitDy=0;strokeWidth=4;strokeColor=#003366;entryX=0.5;entryY=1;entryDx=0;entryDy=0;" parent="dNX773PHdtzjreDsDfFc-27" source="dNX773PHdtzjreDsDfFc-59" target="dNX773PHdtzjreDsDfFc-28" edge="1">
          <mxGeometry width="50" height="50" relative="1" as="geometry">
            <mxPoint x="450" y="278" as="sourcePoint" />
            <mxPoint x="450" y="240" as="targetPoint" />
          </mxGeometry>
        </mxCell>
        <mxCell id="dNX773PHdtzjreDsDfFc-39" value="" style="endArrow=none;html=1;rounded=0;fontFamily=Courier New;fontSize=12;fontColor=default;exitX=0.192;exitY=0;exitDx=0;exitDy=0;strokeWidth=4;strokeColor=#003366;entryX=0.5;entryY=1;entryDx=0;entryDy=0;exitPerimeter=0;" parent="dNX773PHdtzjreDsDfFc-27" source="dNX773PHdtzjreDsDfFc-58" target="dNX773PHdtzjreDsDfFc-59" edge="1">
          <mxGeometry width="50" height="50" relative="1" as="geometry">
            <mxPoint x="450" y="330" as="sourcePoint" />
            <mxPoint x="450" y="303" as="targetPoint" />
          </mxGeometry>
        </mxCell>
        <mxCell id="dNX773PHdtzjreDsDfFc-40" value="" style="endArrow=none;html=1;rounded=0;fontFamily=Courier New;fontSize=12;fontColor=default;strokeWidth=4;strokeColor=#003366;exitX=0.191;exitY=1.017;exitDx=0;exitDy=0;exitPerimeter=0;entryX=0.191;entryY=0.017;entryDx=0;entryDy=0;entryPerimeter=0;" parent="dNX773PHdtzjreDsDfFc-27" source="dNX773PHdtzjreDsDfFc-58" target="dNX773PHdtzjreDsDfFc-57" edge="1">
          <mxGeometry width="50" height="50" relative="1" as="geometry">
            <mxPoint x="439" y="410" as="sourcePoint" />
            <mxPoint x="440" y="410" as="targetPoint" />
          </mxGeometry>
        </mxCell>
        <mxCell id="dNX773PHdtzjreDsDfFc-41" value="" style="endArrow=none;html=1;rounded=0;fontFamily=Courier New;fontSize=12;fontColor=default;strokeWidth=4;strokeColor=#003366;entryX=0.191;entryY=1.017;entryDx=0;entryDy=0;entryPerimeter=0;" parent="dNX773PHdtzjreDsDfFc-27" target="dNX773PHdtzjreDsDfFc-57" edge="1">
          <mxGeometry width="50" height="50" relative="1" as="geometry">
            <mxPoint x="440" y="490" as="sourcePoint" />
            <mxPoint x="440" y="470" as="targetPoint" />
          </mxGeometry>
        </mxCell>
        <mxCell id="dNX773PHdtzjreDsDfFc-42" value="" style="endArrow=none;html=1;rounded=0;fontFamily=Courier New;fontSize=12;fontColor=default;strokeWidth=4;strokeColor=#003366;" parent="dNX773PHdtzjreDsDfFc-27" edge="1">
          <mxGeometry width="50" height="50" relative="1" as="geometry">
            <mxPoint x="440" y="510" as="sourcePoint" />
            <mxPoint x="440" y="530" as="targetPoint" />
          </mxGeometry>
        </mxCell>
        <mxCell id="dNX773PHdtzjreDsDfFc-43" value="" style="endArrow=blockThin;html=1;rounded=0;fontFamily=Courier New;fontSize=12;fontColor=default;strokeWidth=4;strokeColor=#003366;endFill=1;" parent="dNX773PHdtzjreDsDfFc-27" edge="1">
          <mxGeometry width="50" height="50" relative="1" as="geometry">
            <mxPoint x="440" y="570" as="sourcePoint" />
            <mxPoint x="440" y="590" as="targetPoint" />
          </mxGeometry>
        </mxCell>
        <mxCell id="dNX773PHdtzjreDsDfFc-45" value="" style="endArrow=none;html=1;rounded=0;fontFamily=Courier New;fontSize=12;fontColor=default;strokeWidth=4;strokeColor=#003366;entryX=0.5;entryY=1;entryDx=0;entryDy=0;exitX=0.5;exitY=0;exitDx=0;exitDy=0;" parent="dNX773PHdtzjreDsDfFc-27" source="dNX773PHdtzjreDsDfFc-60" target="dNX773PHdtzjreDsDfFc-32" edge="1">
          <mxGeometry width="50" height="50" relative="1" as="geometry">
            <mxPoint x="510" y="390" as="sourcePoint" />
            <mxPoint x="510" y="363" as="targetPoint" />
          </mxGeometry>
        </mxCell>
        <mxCell id="dNX773PHdtzjreDsDfFc-46" value="" style="endArrow=blockThin;html=1;rounded=0;fontFamily=Courier New;fontSize=12;fontColor=default;exitX=0.5;exitY=0;exitDx=0;exitDy=0;strokeWidth=4;strokeColor=#003366;endFill=1;" parent="dNX773PHdtzjreDsDfFc-27" source="dNX773PHdtzjreDsDfFc-32" edge="1">
          <mxGeometry width="50" height="50" relative="1" as="geometry">
            <mxPoint x="520" y="400" as="sourcePoint" />
            <mxPoint x="600" y="220" as="targetPoint" />
          </mxGeometry>
        </mxCell>
        <mxCell id="dNX773PHdtzjreDsDfFc-47" value="" style="endArrow=none;html=1;rounded=0;fontFamily=Courier New;fontSize=12;fontColor=default;strokeWidth=4;strokeColor=#003366;entryX=0.5;entryY=1;entryDx=0;entryDy=0;" parent="dNX773PHdtzjreDsDfFc-27" target="dNX773PHdtzjreDsDfFc-60" edge="1">
          <mxGeometry width="50" height="50" relative="1" as="geometry">
            <mxPoint x="600" y="350" as="sourcePoint" />
            <mxPoint x="530" y="383" as="targetPoint" />
          </mxGeometry>
        </mxCell>
        <mxCell id="dNX773PHdtzjreDsDfFc-48" value="" style="endArrow=none;html=1;rounded=0;fontFamily=Courier New;fontSize=12;fontColor=default;strokeWidth=4;strokeColor=#003366;exitX=0.811;exitY=-0.002;exitDx=0;exitDy=0;exitPerimeter=0;entryX=0.811;entryY=0.99;entryDx=0;entryDy=0;entryPerimeter=0;" parent="dNX773PHdtzjreDsDfFc-27" source="dNX773PHdtzjreDsDfFc-57" target="dNX773PHdtzjreDsDfFc-58" edge="1">
          <mxGeometry width="50" height="50" relative="1" as="geometry">
            <mxPoint x="601" y="440" as="sourcePoint" />
            <mxPoint x="590" y="420" as="targetPoint" />
          </mxGeometry>
        </mxCell>
        <mxCell id="dNX773PHdtzjreDsDfFc-49" value="" style="endArrow=none;html=1;rounded=0;fontFamily=Courier New;fontSize=12;fontColor=default;strokeWidth=4;strokeColor=#003366;exitX=0.811;exitY=-0.002;exitDx=0;exitDy=0;exitPerimeter=0;entryX=0.806;entryY=1.017;entryDx=0;entryDy=0;entryPerimeter=0;" parent="dNX773PHdtzjreDsDfFc-27" target="dNX773PHdtzjreDsDfFc-57" edge="1">
          <mxGeometry width="50" height="50" relative="1" as="geometry">
            <mxPoint x="600" y="490" as="sourcePoint" />
            <mxPoint x="600" y="470" as="targetPoint" />
          </mxGeometry>
        </mxCell>
        <mxCell id="dNX773PHdtzjreDsDfFc-50" value="" style="endArrow=none;html=1;rounded=0;fontFamily=Courier New;fontSize=12;fontColor=default;strokeWidth=4;strokeColor=#003366;exitX=0.811;exitY=-0.002;exitDx=0;exitDy=0;exitPerimeter=0;entryX=0.811;entryY=0.99;entryDx=0;entryDy=0;entryPerimeter=0;" parent="dNX773PHdtzjreDsDfFc-27" edge="1">
          <mxGeometry width="50" height="50" relative="1" as="geometry">
            <mxPoint x="599.67" y="530" as="sourcePoint" />
            <mxPoint x="599.67" y="510" as="targetPoint" />
          </mxGeometry>
        </mxCell>
        <mxCell id="dNX773PHdtzjreDsDfFc-51" value="" style="endArrow=none;html=1;rounded=0;fontFamily=Courier New;fontSize=12;fontColor=default;strokeWidth=4;strokeColor=#003366;exitX=0.811;exitY=-0.002;exitDx=0;exitDy=0;exitPerimeter=0;entryX=0.811;entryY=0.99;entryDx=0;entryDy=0;entryPerimeter=0;" parent="dNX773PHdtzjreDsDfFc-27" edge="1">
          <mxGeometry width="50" height="50" relative="1" as="geometry">
            <mxPoint x="600" y="590" as="sourcePoint" />
            <mxPoint x="600" y="570" as="targetPoint" />
          </mxGeometry>
        </mxCell>
        <mxCell id="dNX773PHdtzjreDsDfFc-54" value="tcp_sendmsg()" style="rounded=1;whiteSpace=wrap;html=1;strokeColor=#666666;strokeWidth=1.5;fontFamily=Courier New;fontSize=12;fontColor=default;fillColor=#F5F9FF;" parent="dNX773PHdtzjreDsDfFc-27" vertex="1">
          <mxGeometry x="390" y="590" width="260" height="40" as="geometry" />
        </mxCell>
        <mxCell id="dNX773PHdtzjreDsDfFc-55" value="Socket Interface" style="rounded=1;whiteSpace=wrap;html=1;strokeColor=#666666;strokeWidth=1.5;fontFamily=Courier New;fontSize=12;fontColor=default;fillColor=#F5F9FF;" parent="dNX773PHdtzjreDsDfFc-27" vertex="1">
          <mxGeometry x="390" y="530" width="260" height="40" as="geometry" />
        </mxCell>
        <mxCell id="dNX773PHdtzjreDsDfFc-56" value="Virtual File System" style="rounded=1;whiteSpace=wrap;html=1;strokeColor=#666666;strokeWidth=1.5;fontFamily=Courier New;fontSize=12;fontColor=default;fillColor=#F5F9FF;" parent="dNX773PHdtzjreDsDfFc-27" vertex="1">
          <mxGeometry x="390" y="470" width="260" height="40" as="geometry" />
        </mxCell>
        <mxCell id="dNX773PHdtzjreDsDfFc-57" value="ksys_write()" style="rounded=1;whiteSpace=wrap;html=1;strokeColor=#666666;strokeWidth=1.5;fontFamily=Courier New;fontSize=12;fontColor=default;fillColor=#F5F9FF;" parent="dNX773PHdtzjreDsDfFc-27" vertex="1">
          <mxGeometry x="390" y="410" width="260" height="40" as="geometry" />
        </mxCell>
        <mxCell id="dNX773PHdtzjreDsDfFc-59" value="entry code" style="rounded=1;whiteSpace=wrap;html=1;strokeColor=#666666;strokeWidth=1.5;fontFamily=Courier New;fontSize=12;fontColor=default;fillColor=#F5F9FF;" parent="dNX773PHdtzjreDsDfFc-27" vertex="1">
          <mxGeometry x="390" y="300" width="100" height="30" as="geometry" />
        </mxCell>
        <mxCell id="dNX773PHdtzjreDsDfFc-60" value="exit code" style="rounded=1;whiteSpace=wrap;html=1;strokeColor=#666666;strokeWidth=1.5;fontFamily=Courier New;fontSize=12;fontColor=default;fillColor=#F5F9FF;" parent="dNX773PHdtzjreDsDfFc-27" vertex="1">
          <mxGeometry x="550" y="300" width="100" height="30" as="geometry" />
        </mxCell>
        <mxCell id="dNX773PHdtzjreDsDfFc-67" value="&lt;font style=&quot;font-size: 16px;&quot;&gt;Kernel Mode&lt;/font&gt;" style="text;html=1;align=center;verticalAlign=middle;resizable=1;points=[];autosize=0;strokeColor=none;fillColor=none;fontSize=16;fontFamily=Courier New;fontColor=default;fontStyle=1;whiteSpace=wrap;" parent="dNX773PHdtzjreDsDfFc-27" vertex="1">
          <mxGeometry x="70" y="254" width="110" height="30" as="geometry" />
        </mxCell>
        <mxCell id="dNX773PHdtzjreDsDfFc-68" value="&lt;font style=&quot;font-size: 16px;&quot;&gt;User Mode&lt;/font&gt;" style="text;html=1;align=center;verticalAlign=middle;resizable=1;points=[];autosize=0;strokeColor=none;fillColor=none;fontSize=16;fontFamily=Courier New;fontColor=default;fontStyle=1;whiteSpace=wrap;" parent="dNX773PHdtzjreDsDfFc-27" vertex="1">
          <mxGeometry x="70" y="216" width="90" height="30" as="geometry" />
        </mxCell>
        <mxCell id="dNX773PHdtzjreDsDfFc-58" value="Vector Table" style="rounded=1;whiteSpace=wrap;html=1;strokeColor=#666666;strokeWidth=1.5;fontFamily=Courier New;fontSize=12;fontColor=default;fillColor=#F5F9FF;points=[[0,0,0,0,0],[0,0.25,0,0,0],[0,0.5,0,0,0],[0,0.75,0,0,0],[0,1,0,0,0],[0.07,0,0,0,0],[0.07,1,0,0,0],[0.13,0,0,0,0],[0.13,1,0,0,0],[0.25,0,0,0,0],[0.25,1,0,0,0],[0.5,0,0,0,0],[0.5,1,0,0,0],[0.75,0,0,0,0],[0.75,1,0,0,0],[0.88,0,0,0,0],[0.88,1,0,0,0],[0.94,0,0,0,0],[0.94,1,0,0,0],[1,0,0,0,0],[1,0.25,0,0,0],[1,0.5,0,0,0],[1,0.75,0,0,0],[1,1,0,0,0]];" parent="dNX773PHdtzjreDsDfFc-27" vertex="1">
          <mxGeometry x="390" y="350" width="260" height="40" as="geometry" />
        </mxCell>
        <mxCell id="dNX773PHdtzjreDsDfFc-73" value="UKL Process" style="locked=1;" parent="0" />
        <mxCell id="dNX773PHdtzjreDsDfFc-102" value="&lt;pre style=&quot;text-align: justify&quot;&gt;&lt;font face=&quot;Courier New&quot; style=&quot;font-size: 18px ; line-height: 1&quot;&gt;&lt;b&gt;UKL Process&lt;/b&gt;&lt;/font&gt;&lt;/pre&gt;" style="rounded=1;whiteSpace=wrap;html=1;strokeWidth=3;labelPosition=center;verticalLabelPosition=middle;align=center;verticalAlign=middle;horizontal=1;spacing=0;spacingBottom=0;fillColor=#FFCE9F;glass=0;labelBackgroundColor=none;fontSize=12;dashed=1;dashPattern=1 1;strokeColor=#994C00;fontFamily=Courier New;fontColor=default;" parent="dNX773PHdtzjreDsDfFc-73" vertex="1">
          <mxGeometry x="160" y="460" width="140" height="110" as="geometry" />
        </mxCell>
        <mxCell id="dNX773PHdtzjreDsDfFc-76" value="Base Model" style="locked=1;" parent="0" visible="0" />
        <mxCell id="dNX773PHdtzjreDsDfFc-77" value="" style="endArrow=classic;html=1;rounded=0;fontFamily=Courier New;fontSize=12;fontColor=default;entryX=0;entryY=0.5;entryDx=0;entryDy=0;strokeWidth=3;strokeColor=#FF6F00;" parent="dNX773PHdtzjreDsDfFc-76" edge="1">
          <mxGeometry width="50" height="50" relative="1" as="geometry">
            <mxPoint x="181" y="460" as="sourcePoint" />
            <mxPoint x="390" y="315" as="targetPoint" />
            <Array as="points">
              <mxPoint x="180" y="315" />
            </Array>
          </mxGeometry>
        </mxCell>
        <mxCell id="dNX773PHdtzjreDsDfFc-79" value="fn. call" style="edgeLabel;html=1;align=center;verticalAlign=middle;resizable=0;points=[];fontSize=12;fontFamily=Courier New;fontColor=default;labelBackgroundColor=none;" parent="dNX773PHdtzjreDsDfFc-77" vertex="1" connectable="0">
          <mxGeometry x="0.2968" y="2" relative="1" as="geometry">
            <mxPoint x="10" y="9" as="offset" />
          </mxGeometry>
        </mxCell>
        <mxCell id="dNX773PHdtzjreDsDfFc-80" value="" style="endArrow=classic;html=1;rounded=0;fontFamily=Courier New;fontSize=12;fontColor=default;strokeWidth=3;strokeColor=#FF6F00;labelPosition=center;verticalLabelPosition=middle;align=center;verticalAlign=middle;exitX=0.25;exitY=1;exitDx=0;exitDy=0;" parent="dNX773PHdtzjreDsDfFc-76" source="dNX773PHdtzjreDsDfFc-60" edge="1">
          <mxGeometry width="50" height="50" relative="1" as="geometry">
            <mxPoint x="400" y="325" as="sourcePoint" />
            <mxPoint x="200" y="460" as="targetPoint" />
            <Array as="points">
              <mxPoint x="575" y="340" />
              <mxPoint x="200" y="340" />
            </Array>
          </mxGeometry>
        </mxCell>
        <mxCell id="dNX773PHdtzjreDsDfFc-81" value="ret" style="edgeLabel;html=1;align=center;verticalAlign=middle;resizable=0;points=[];fontSize=12;fontFamily=Courier New;fontColor=default;labelBackgroundColor=none;" parent="dNX773PHdtzjreDsDfFc-80" vertex="1" connectable="0">
          <mxGeometry x="0.2968" y="2" relative="1" as="geometry">
            <mxPoint x="5" y="5" as="offset" />
          </mxGeometry>
        </mxCell>
        <mxCell id="dNX773PHdtzjreDsDfFc-84" value="&lt;b style=&quot;font-size: 15px;&quot;&gt;&lt;font style=&quot;font-size: 15px;&quot;&gt;Base Model&lt;/font&gt;&lt;/b&gt;" style="text;html=1;align=center;verticalAlign=middle;resizable=0;points=[];autosize=1;strokeColor=none;fillColor=none;fontSize=15;fontFamily=Courier New;fontColor=#000000;labelBackgroundColor=default;labelBorderColor=#663300;" parent="dNX773PHdtzjreDsDfFc-76" vertex="1">
          <mxGeometry x="189" y="274" width="110" height="30" as="geometry" />
        </mxCell>
        <mxCell id="dNX773PHdtzjreDsDfFc-87" value="Bypass" style="locked=1;" parent="0" />
        <mxCell id="dNX773PHdtzjreDsDfFc-88" value="" style="endArrow=classic;html=1;rounded=0;fontFamily=Courier New;fontSize=12;fontColor=default;strokeWidth=3;strokeColor=#FF6F00;entryX=0;entryY=0.25;entryDx=0;entryDy=0;exitX=0.636;exitY=-0.009;exitDx=0;exitDy=0;exitPerimeter=0;" parent="dNX773PHdtzjreDsDfFc-87" source="dNX773PHdtzjreDsDfFc-102" target="dNX773PHdtzjreDsDfFc-57" edge="1">
          <mxGeometry width="50" height="50" relative="1" as="geometry">
            <mxPoint x="300" y="480" as="sourcePoint" />
            <mxPoint x="390" y="488" as="targetPoint" />
            <Array as="points">
              <mxPoint x="249" y="420" />
            </Array>
          </mxGeometry>
        </mxCell>
        <mxCell id="dNX773PHdtzjreDsDfFc-91" value="" style="endArrow=classic;html=1;rounded=0;fontFamily=Courier New;fontSize=12;fontColor=default;strokeWidth=3;strokeColor=#FF6F00;exitX=1;exitY=0.25;exitDx=0;exitDy=0;entryX=0.75;entryY=0;entryDx=0;entryDy=0;" parent="dNX773PHdtzjreDsDfFc-87" target="dNX773PHdtzjreDsDfFc-102" edge="1">
          <mxGeometry width="50" height="50" relative="1" as="geometry">
            <mxPoint x="389.72" y="440" as="sourcePoint" />
            <mxPoint x="300" y="440.03999999999996" as="targetPoint" />
            <Array as="points">
              <mxPoint x="265" y="440" />
            </Array>
          </mxGeometry>
        </mxCell>
        <mxCell id="dNX773PHdtzjreDsDfFc-93" value="&lt;b style=&quot;font-size: 15px;&quot;&gt;&lt;font style=&quot;font-size: 15px;&quot;&gt;Bypass&lt;/font&gt;&lt;/b&gt;" style="text;html=1;align=center;verticalAlign=middle;resizable=0;points=[];autosize=1;strokeColor=none;fillColor=none;fontSize=15;fontFamily=Courier New;fontColor=#000000;labelBackgroundColor=default;labelBorderColor=#663300;" parent="dNX773PHdtzjreDsDfFc-87" vertex="1">
          <mxGeometry x="300" y="390" width="80" height="30" as="geometry" />
        </mxCell>
        <mxCell id="dNX773PHdtzjreDsDfFc-94" value="Shortcut" style="locked=1;" parent="0" />
        <mxCell id="dNX773PHdtzjreDsDfFc-95" value="" style="endArrow=classic;html=1;rounded=0;fontFamily=Courier New;fontSize=12;fontColor=default;strokeWidth=3;strokeColor=#FF6F00;exitX=0.474;exitY=1;exitDx=0;exitDy=0;exitPerimeter=0;" parent="dNX773PHdtzjreDsDfFc-94" source="dNX773PHdtzjreDsDfFc-102" edge="1">
          <mxGeometry width="50" height="50" relative="1" as="geometry">
            <mxPoint x="220" y="570" as="sourcePoint" />
            <mxPoint x="390" y="620" as="targetPoint" />
            <Array as="points">
              <mxPoint x="226" y="620" />
            </Array>
          </mxGeometry>
        </mxCell>
        <mxCell id="dNX773PHdtzjreDsDfFc-96" value="" style="endArrow=classic;html=1;rounded=0;fontFamily=Courier New;fontSize=12;fontColor=default;strokeWidth=3;strokeColor=#FF6F00;entryX=0.569;entryY=0.994;entryDx=0;entryDy=0;entryPerimeter=0;exitX=0;exitY=0.25;exitDx=0;exitDy=0;" parent="dNX773PHdtzjreDsDfFc-94" source="dNX773PHdtzjreDsDfFc-54" edge="1">
          <mxGeometry width="50" height="50" relative="1" as="geometry">
            <mxPoint x="390" y="670" as="sourcePoint" />
            <mxPoint x="239.66000000000008" y="569.3399999999999" as="targetPoint" />
            <Array as="points">
              <mxPoint x="240" y="600" />
            </Array>
          </mxGeometry>
        </mxCell>
        <mxCell id="dNX773PHdtzjreDsDfFc-98" value="&lt;b style=&quot;font-size: 15px;&quot;&gt;&lt;font style=&quot;font-size: 15px;&quot;&gt;Shortcut&lt;/font&gt;&lt;/b&gt;" style="text;html=1;align=center;verticalAlign=middle;resizable=0;points=[];autosize=1;strokeColor=none;fillColor=none;fontSize=15;fontFamily=Courier New;fontColor=#000000;labelBackgroundColor=#FFFFFF;labelBorderColor=#663300;" parent="dNX773PHdtzjreDsDfFc-94" vertex="1">
          <mxGeometry x="200" y="630" width="100" height="30" as="geometry" />
        </mxCell>
      </root>
    </mxGraphModel>
  </diagram>
  <diagram id="rQK1tLoB_1DYyC5wrTxu" name="Perf Compat">
    <mxGraphModel dx="1306" dy="919" grid="1" gridSize="10" guides="1" tooltips="1" connect="1" arrows="1" fold="1" page="1" pageScale="1" pageWidth="1100" pageHeight="850" math="0" shadow="0">
      <root>
        <mxCell id="0" />
        <mxCell id="1" parent="0" />
        <mxCell id="id918qXZsQcMNrd1NhV3-4" value="" style="verticalLabelPosition=bottom;verticalAlign=top;html=1;shape=mxgraph.basic.orthogonal_triangle;rounded=1;strokeColor=none;strokeWidth=1.5;fontFamily=Courier New;fontSize=12;fontColor=default;fillColor=#FFFFFF;gradientColor=#FFAF0F;gradientDirection=west;flipH=1;" parent="1" vertex="1">
          <mxGeometry x="95" y="100" width="900" height="180" as="geometry" />
        </mxCell>
        <mxCell id="id918qXZsQcMNrd1NhV3-5" value="" style="verticalLabelPosition=bottom;verticalAlign=top;html=1;shape=mxgraph.basic.orthogonal_triangle;rounded=1;strokeColor=none;strokeWidth=1.5;fontFamily=Courier New;fontSize=12;fontColor=default;fillColor=#FFFFFF;flipV=1;flipH=0;gradientColor=#43A7E8;gradientDirection=west;" parent="1" vertex="1">
          <mxGeometry x="95" y="90" width="910" height="180" as="geometry" />
        </mxCell>
        <mxCell id="id918qXZsQcMNrd1NhV3-6" value="" style="shape=flexArrow;endArrow=classic;html=1;rounded=0;fontFamily=Courier New;fontSize=12;fontColor=default;width=40;endSize=10.67;strokeColor=none;fillColor=#DB970D;gradientColor=#FFAF0F;" parent="1" edge="1">
          <mxGeometry width="50" height="50" relative="1" as="geometry">
            <mxPoint x="975" y="270" as="sourcePoint" />
            <mxPoint x="975" y="40" as="targetPoint" />
          </mxGeometry>
        </mxCell>
        <mxCell id="id918qXZsQcMNrd1NhV3-7" value="" style="shape=flexArrow;endArrow=classic;html=1;rounded=0;fontFamily=Courier New;fontSize=12;fontColor=default;width=40;endSize=10.67;strokeColor=none;fillColor=#2C6E99;gradientColor=#43A7E8;" parent="1" edge="1">
          <mxGeometry width="50" height="50" relative="1" as="geometry">
            <mxPoint x="115" y="250" as="sourcePoint" />
            <mxPoint x="115" y="40" as="targetPoint" />
          </mxGeometry>
        </mxCell>
        <mxCell id="hRiFbSETM71ScKHgD_4B-7" value="Labels" parent="0" visible="0" />
        <mxCell id="hRiFbSETM71ScKHgD_4B-8" value="&lt;span style=&quot;font-size: 28px;&quot;&gt;Compatibility&amp;nbsp;&lt;/span&gt;" style="text;html=1;align=center;verticalAlign=middle;resizable=0;points=[];autosize=1;strokeColor=none;fillColor=none;fontSize=28;fontFamily=Courier New;fontColor=default;" parent="hRiFbSETM71ScKHgD_4B-7" vertex="1">
          <mxGeometry x="120" y="85" width="260" height="50" as="geometry" />
        </mxCell>
        <mxCell id="hRiFbSETM71ScKHgD_4B-9" value="&lt;span style=&quot;border-color: var(--border-color); font-size: 28px;&quot;&gt;Performance&lt;/span&gt;" style="text;html=1;align=center;verticalAlign=middle;resizable=0;points=[];autosize=1;strokeColor=none;fillColor=none;fontSize=28;fontFamily=Courier New;fontColor=default;fontStyle=0" parent="hRiFbSETM71ScKHgD_4B-7" vertex="1">
          <mxGeometry x="755" y="235" width="210" height="50" as="geometry" />
        </mxCell>
        <mxCell id="hRiFbSETM71ScKHgD_4B-10" value="compat emphasis" parent="0" visible="0" />
        <mxCell id="hRiFbSETM71ScKHgD_4B-11" value="&lt;span style=&quot;font-size: 28px;&quot;&gt;Compatibility&lt;/span&gt;" style="text;html=1;align=center;verticalAlign=middle;resizable=0;points=[];autosize=1;strokeColor=none;fillColor=none;fontSize=28;fontFamily=Courier New;fontColor=default;fontStyle=3" parent="hRiFbSETM71ScKHgD_4B-10" vertex="1">
          <mxGeometry x="122" y="85" width="240" height="50" as="geometry" />
        </mxCell>
        <mxCell id="hRiFbSETM71ScKHgD_4B-12" value="&lt;span style=&quot;border-color: var(--border-color); font-size: 28px;&quot;&gt;Performance&lt;/span&gt;" style="text;html=1;align=center;verticalAlign=middle;resizable=0;points=[];autosize=1;strokeColor=none;fillColor=none;fontSize=28;fontFamily=Courier New;fontColor=default;fontStyle=0;textOpacity=30;" parent="hRiFbSETM71ScKHgD_4B-10" vertex="1">
          <mxGeometry x="756" y="236" width="210" height="50" as="geometry" />
        </mxCell>
        <mxCell id="hRiFbSETM71ScKHgD_4B-13" value="Perf emphasis" parent="0" />
        <mxCell id="hRiFbSETM71ScKHgD_4B-14" value="&lt;span style=&quot;font-size: 28px;&quot;&gt;Compatibility&lt;/span&gt;" style="text;html=1;align=center;verticalAlign=middle;resizable=0;points=[];autosize=1;strokeColor=none;fillColor=none;fontSize=28;fontFamily=Courier New;fontColor=default;fontStyle=0;textOpacity=30;" parent="hRiFbSETM71ScKHgD_4B-13" vertex="1">
          <mxGeometry x="122" y="85" width="240" height="50" as="geometry" />
        </mxCell>
        <mxCell id="hRiFbSETM71ScKHgD_4B-15" value="&lt;span style=&quot;border-color: var(--border-color); font-size: 28px;&quot;&gt;Performance&lt;/span&gt;" style="text;html=1;align=center;verticalAlign=middle;resizable=0;points=[];autosize=1;strokeColor=none;fillColor=none;fontSize=28;fontFamily=Courier New;fontColor=default;fontStyle=3;" parent="hRiFbSETM71ScKHgD_4B-13" vertex="1">
          <mxGeometry x="756" y="236" width="210" height="50" as="geometry" />
        </mxCell>
      </root>
    </mxGraphModel>
  </diagram>
  <diagram id="L8QTqrH7l4zJzQ6pstqq" name="double arrow">
    <mxGraphModel dx="1306" dy="919" grid="1" gridSize="10" guides="1" tooltips="1" connect="1" arrows="1" fold="1" page="1" pageScale="1" pageWidth="1100" pageHeight="850" math="0" shadow="0">
      <root>
        <mxCell id="0" />
        <mxCell id="1" parent="0" />
        <mxCell id="sOnrxC1UQ0ZpiKLHQSs6-1" value="" style="shape=flexArrow;endArrow=classic;startArrow=classic;html=1;rounded=0;fontFamily=Courier New;fontSize=12;fontColor=default;width=8;endSize=5;fillColor=#FFAF0F;gradientColor=#2C6E99;gradientDirection=west;strokeColor=none;strokeWidth=2;startSize=5;shadow=1;" parent="1" edge="1">
          <mxGeometry width="100" height="100" relative="1" as="geometry">
            <mxPoint x="100" y="530" as="sourcePoint" />
            <mxPoint x="1000" y="530" as="targetPoint" />
          </mxGeometry>
        </mxCell>
        <mxCell id="sOnrxC1UQ0ZpiKLHQSs6-2" value="&lt;font style=&quot;font-size: 21px;&quot;&gt;Generality&lt;/font&gt;" style="text;html=1;align=center;verticalAlign=middle;resizable=0;points=[];autosize=1;strokeColor=none;fillColor=none;fontSize=12;fontFamily=Courier New;fontColor=default;fontStyle=1" parent="1" vertex="1">
          <mxGeometry x="130" y="540" width="150" height="40" as="geometry" />
        </mxCell>
        <mxCell id="sOnrxC1UQ0ZpiKLHQSs6-3" value="&lt;font style=&quot;font-size: 21px;&quot;&gt;Specialization&lt;/font&gt;" style="text;html=1;align=center;verticalAlign=middle;resizable=0;points=[];autosize=1;strokeColor=none;fillColor=none;fontSize=12;fontFamily=Courier New;fontColor=default;fontStyle=1" parent="1" vertex="1">
          <mxGeometry x="780" y="540" width="200" height="40" as="geometry" />
        </mxCell>
        <mxCell id="sOnrxC1UQ0ZpiKLHQSs6-4" value="" style="group" parent="1" vertex="1" connectable="0">
          <mxGeometry x="140" y="490" width="190" height="30" as="geometry" />
        </mxCell>
        <mxCell id="sOnrxC1UQ0ZpiKLHQSs6-5" value="" style="shape=offPageConnector;whiteSpace=wrap;html=1;rounded=0;strokeColor=#1A4059;strokeWidth=2;fontFamily=Courier New;fontSize=10;fontColor=default;fillColor=#D9EDFF;" parent="sOnrxC1UQ0ZpiKLHQSs6-4" vertex="1">
          <mxGeometry x="80" y="5" width="20" height="25" as="geometry" />
        </mxCell>
        <mxCell id="sOnrxC1UQ0ZpiKLHQSs6-6" value="" style="endArrow=none;html=1;rounded=0;fontFamily=Courier New;fontSize=12;fontColor=default;entryX=0;entryY=0;entryDx=0;entryDy=0;exitX=0.476;exitY=-0.006;exitDx=0;exitDy=0;exitPerimeter=0;strokeWidth=2;strokeColor=#1A4059;" parent="sOnrxC1UQ0ZpiKLHQSs6-4" source="sOnrxC1UQ0ZpiKLHQSs6-8" target="sOnrxC1UQ0ZpiKLHQSs6-8" edge="1">
          <mxGeometry width="50" height="50" relative="1" as="geometry">
            <mxPoint x="100" y="25" as="sourcePoint" />
            <mxPoint x="330" y="-10" as="targetPoint" />
          </mxGeometry>
        </mxCell>
        <mxCell id="sOnrxC1UQ0ZpiKLHQSs6-7" value="" style="endArrow=none;html=1;rounded=0;fontFamily=Courier New;fontSize=12;fontColor=default;exitX=1;exitY=0;exitDx=0;exitDy=0;strokeWidth=2;strokeColor=#1A4059;" parent="sOnrxC1UQ0ZpiKLHQSs6-4" source="sOnrxC1UQ0ZpiKLHQSs6-8" edge="1">
          <mxGeometry width="50" height="50" relative="1" as="geometry">
            <mxPoint y="25" as="sourcePoint" />
            <mxPoint x="80" y="20" as="targetPoint" />
          </mxGeometry>
        </mxCell>
        <mxCell id="sOnrxC1UQ0ZpiKLHQSs6-8" value="&lt;font style=&quot;font-size: 17px;&quot;&gt;General-Purpose OS&lt;/font&gt;" style="shape=partialRectangle;whiteSpace=wrap;html=1;bottom=1;right=1;left=1;top=0;fillColor=#D9EDFF;routingCenterX=-0.5;rounded=1;strokeColor=#1A4059;strokeWidth=2;fontFamily=Courier New;fontSize=12;fontColor=default;direction=west;" parent="sOnrxC1UQ0ZpiKLHQSs6-4" vertex="1">
          <mxGeometry width="190" height="20" as="geometry" />
        </mxCell>
      </root>
    </mxGraphModel>
  </diagram>
  <diagram id="H382C1dD0AwaCDYdVGOa" name="Shared Stacks">
    <mxGraphModel dx="1306" dy="919" grid="1" gridSize="10" guides="1" tooltips="1" connect="1" arrows="1" fold="1" page="1" pageScale="1" pageWidth="1100" pageHeight="850" math="0" shadow="0">
      <root>
        <mxCell id="0" />
        <mxCell id="1" style="locked=1;" parent="0" />
        <mxCell id="exvFrj0tK77b3cdCIxCv-1" value="Diagram" parent="0" />
        <mxCell id="C9YsvARGQjCNcdqLtb4C-3" value="" style="endArrow=block;html=1;rounded=0;fontFamily=Courier New;fontSize=12;fontColor=default;exitX=0.5;exitY=1;exitDx=0;exitDy=0;entryX=0;entryY=0.5;entryDx=0;entryDy=0;strokeWidth=4;strokeColor=#CC6600;endFill=1;startArrow=oval;startFill=1;" parent="exvFrj0tK77b3cdCIxCv-1" source="eZyuLgf-gwoOVG9-1C7c-1" target="szRxu2ozMODWLjFq8Y3A-1" edge="1">
          <mxGeometry width="50" height="50" relative="1" as="geometry">
            <mxPoint x="235" y="470" as="sourcePoint" />
            <mxPoint x="400" y="325" as="targetPoint" />
            <Array as="points">
              <mxPoint x="280" y="535" />
            </Array>
          </mxGeometry>
        </mxCell>
        <mxCell id="C9YsvARGQjCNcdqLtb4C-5" value="" style="endArrow=block;html=1;rounded=0;fontFamily=Courier New;fontSize=12;fontColor=default;strokeWidth=4;strokeColor=#CC6600;endFill=1;startArrow=oval;startFill=1;" parent="exvFrj0tK77b3cdCIxCv-1" edge="1">
          <mxGeometry width="50" height="50" relative="1" as="geometry">
            <mxPoint x="770" y="270" as="sourcePoint" />
            <mxPoint x="650" y="110" as="targetPoint" />
            <Array as="points">
              <mxPoint x="770" y="140" />
              <mxPoint x="650" y="140" />
            </Array>
          </mxGeometry>
        </mxCell>
        <mxCell id="C9YsvARGQjCNcdqLtb4C-1" value="" style="endArrow=oval;html=1;rounded=0;fontFamily=Courier New;fontSize=12;fontColor=default;entryX=0.5;entryY=0;entryDx=0;entryDy=0;strokeWidth=4;strokeColor=#CC6600;endFill=1;startArrow=oval;startFill=1;" parent="exvFrj0tK77b3cdCIxCv-1" target="eZyuLgf-gwoOVG9-1C7c-1" edge="1">
          <mxGeometry width="50" height="50" relative="1" as="geometry">
            <mxPoint x="400" y="110" as="sourcePoint" />
            <mxPoint x="390" y="315" as="targetPoint" />
            <Array as="points">
              <mxPoint x="400" y="140" />
              <mxPoint x="280" y="140" />
            </Array>
          </mxGeometry>
        </mxCell>
        <mxCell id="C9YsvARGQjCNcdqLtb4C-6" value="" style="endArrow=oval;html=1;rounded=0;fontFamily=Courier New;fontSize=12;fontColor=default;exitX=0.5;exitY=1;exitDx=0;exitDy=0;entryX=0;entryY=0.5;entryDx=0;entryDy=0;strokeWidth=4;strokeColor=#CC6600;startArrow=oval;startFill=1;endFill=1;" parent="exvFrj0tK77b3cdCIxCv-1" edge="1">
          <mxGeometry width="50" height="50" relative="1" as="geometry">
            <mxPoint x="750" y="535" as="sourcePoint" />
            <mxPoint x="770" y="370" as="targetPoint" />
            <Array as="points">
              <mxPoint x="770" y="535" />
            </Array>
          </mxGeometry>
        </mxCell>
        <mxCell id="ufGIccRz-ENeEKN0QY5J-1" value="" style="endArrow=block;html=1;rounded=0;fontFamily=Courier New;fontSize=12;fontColor=default;strokeWidth=4;strokeColor=#006633;endFill=1;exitX=0.5;exitY=0;exitDx=0;exitDy=0;startArrow=oval;startFill=1;" parent="exvFrj0tK77b3cdCIxCv-1" source="szRxu2ozMODWLjFq8Y3A-3" edge="1">
          <mxGeometry width="50" height="50" relative="1" as="geometry">
            <mxPoint x="625" y="160" as="sourcePoint" />
            <mxPoint x="625" y="110" as="targetPoint" />
          </mxGeometry>
        </mxCell>
        <mxCell id="ufGIccRz-ENeEKN0QY5J-8" value="" style="endArrow=oval;html=1;rounded=0;fontFamily=Courier New;fontSize=12;fontColor=default;strokeWidth=4;strokeColor=#003366;endFill=1;exitX=0.56;exitY=1;exitDx=0;exitDy=0;entryX=0.281;entryY=-0.013;entryDx=0;entryDy=0;entryPerimeter=0;exitPerimeter=0;startArrow=oval;startFill=1;" parent="exvFrj0tK77b3cdCIxCv-1" edge="1">
          <mxGeometry width="50" height="50" relative="1" as="geometry">
            <mxPoint x="624.7" y="230" as="sourcePoint" />
            <mxPoint x="624.7" y="201" as="targetPoint" />
          </mxGeometry>
        </mxCell>
        <mxCell id="ufGIccRz-ENeEKN0QY5J-10" value="" style="endArrow=oval;html=1;rounded=0;fontFamily=Courier New;fontSize=12;fontColor=default;strokeWidth=4;strokeColor=#003366;endFill=1;exitX=0.56;exitY=1;exitDx=0;exitDy=0;entryX=0.281;entryY=-0.013;entryDx=0;entryDy=0;entryPerimeter=0;exitPerimeter=0;startArrow=oval;startFill=1;" parent="exvFrj0tK77b3cdCIxCv-1" edge="1">
          <mxGeometry width="50" height="50" relative="1" as="geometry">
            <mxPoint x="624.7" y="300" as="sourcePoint" />
            <mxPoint x="624.7" y="271" as="targetPoint" />
          </mxGeometry>
        </mxCell>
        <mxCell id="ufGIccRz-ENeEKN0QY5J-11" value="" style="endArrow=oval;html=1;rounded=0;fontFamily=Courier New;fontSize=12;fontColor=default;strokeWidth=4;strokeColor=#003366;endFill=1;exitX=0.56;exitY=1;exitDx=0;exitDy=0;entryX=0.281;entryY=-0.013;entryDx=0;entryDy=0;entryPerimeter=0;exitPerimeter=0;startArrow=oval;startFill=1;" parent="exvFrj0tK77b3cdCIxCv-1" edge="1">
          <mxGeometry width="50" height="50" relative="1" as="geometry">
            <mxPoint x="624.7" y="370" as="sourcePoint" />
            <mxPoint x="624.7" y="341" as="targetPoint" />
          </mxGeometry>
        </mxCell>
        <mxCell id="ufGIccRz-ENeEKN0QY5J-12" value="" style="endArrow=oval;html=1;rounded=0;fontFamily=Courier New;fontSize=12;fontColor=default;strokeWidth=4;strokeColor=#003366;endFill=1;exitX=0.56;exitY=1;exitDx=0;exitDy=0;entryX=0.281;entryY=-0.013;entryDx=0;entryDy=0;entryPerimeter=0;exitPerimeter=0;startArrow=oval;startFill=1;" parent="exvFrj0tK77b3cdCIxCv-1" edge="1">
          <mxGeometry width="50" height="50" relative="1" as="geometry">
            <mxPoint x="624.7" y="510" as="sourcePoint" />
            <mxPoint x="624.7" y="481" as="targetPoint" />
          </mxGeometry>
        </mxCell>
        <mxCell id="szRxu2ozMODWLjFq8Y3A-1" value="&lt;font style=&quot;font-size: 17px;&quot;&gt;System Call Handling&lt;/font&gt;" style="rounded=1;whiteSpace=wrap;html=1;strokeColor=#003366;strokeWidth=2;fontFamily=Courier New;fontSize=12;fontColor=default;fillColor=#D4E1F5;spacing=0;spacingBottom=0;glass=0;labelBackgroundColor=none;" parent="exvFrj0tK77b3cdCIxCv-1" vertex="1">
          <mxGeometry x="300" y="510" width="450" height="50" as="geometry" />
        </mxCell>
        <mxCell id="ufGIccRz-ENeEKN0QY5J-2" value="" style="endArrow=oval;html=1;rounded=0;fontFamily=Courier New;fontSize=12;fontColor=default;strokeWidth=4;strokeColor=#006633;endFill=1;entryX=0.5;entryY=0;entryDx=0;entryDy=0;startArrow=oval;startFill=1;" parent="exvFrj0tK77b3cdCIxCv-1" target="szRxu2ozMODWLjFq8Y3A-2" edge="1">
          <mxGeometry width="50" height="50" relative="1" as="geometry">
            <mxPoint x="425" y="110" as="sourcePoint" />
            <mxPoint x="424.64" y="150" as="targetPoint" />
          </mxGeometry>
        </mxCell>
        <mxCell id="eZyuLgf-gwoOVG9-1C7c-1" value="&lt;font style=&quot;font-size: 16px;&quot;&gt;Switch to kernel model&lt;/font&gt;" style="rounded=1;whiteSpace=wrap;html=1;strokeColor=#994C00;strokeWidth=2;fontFamily=Courier New;fontSize=16;fontColor=default;fillColor=#FFCE9F;spacing=0;spacingBottom=0;glass=0;labelBackgroundColor=none;" parent="exvFrj0tK77b3cdCIxCv-1" vertex="1">
          <mxGeometry x="240" y="270" width="80" height="100" as="geometry" />
        </mxCell>
        <mxCell id="szRxu2ozMODWLjFq8Y3A-10" value="Scheduling Decision&lt;br style=&quot;font-size: 15px;&quot;&gt;Signal Handling&lt;br style=&quot;font-size: 15px;&quot;&gt;RCU Code&lt;br style=&quot;font-size: 15px;&quot;&gt;FP state restore&amp;nbsp;&lt;br style=&quot;font-size: 15px;&quot;&gt;etc." style="rounded=1;whiteSpace=wrap;html=1;strokeColor=#003366;strokeWidth=2;fontFamily=Courier New;fontSize=15;fontColor=default;fillColor=#D4E1F5;spacing=0;spacingBottom=0;glass=0;labelBackgroundColor=none;" parent="exvFrj0tK77b3cdCIxCv-1" vertex="1">
          <mxGeometry x="540" y="370" width="190" height="110" as="geometry" />
        </mxCell>
        <mxCell id="szRxu2ozMODWLjFq8Y3A-3" value="sysret/iret" style="rounded=1;whiteSpace=wrap;html=1;strokeColor=#003366;strokeWidth=2;fontFamily=Courier New;fontSize=15;fontColor=default;fillColor=#D4E1F5;spacing=0;spacingBottom=0;glass=0;labelBackgroundColor=none;container=0;" parent="exvFrj0tK77b3cdCIxCv-1" vertex="1">
          <mxGeometry x="540" y="160" width="170" height="40" as="geometry" />
        </mxCell>
        <mxCell id="szRxu2ozMODWLjFq8Y3A-5" value="Stack Switch" style="rounded=1;whiteSpace=wrap;html=1;strokeColor=#003366;strokeWidth=2;fontFamily=Courier New;fontSize=15;fontColor=default;fillColor=#D4E1F5;spacing=0;spacingBottom=0;glass=0;labelBackgroundColor=none;container=0;" parent="exvFrj0tK77b3cdCIxCv-1" vertex="1">
          <mxGeometry x="540" y="230" width="170" height="40" as="geometry" />
        </mxCell>
        <mxCell id="szRxu2ozMODWLjFq8Y3A-7" value="Restore Register State" style="rounded=1;whiteSpace=wrap;html=1;strokeColor=#003366;strokeWidth=2;fontFamily=Courier New;fontSize=15;fontColor=default;fillColor=#D4E1F5;spacing=0;spacingBottom=0;glass=0;labelBackgroundColor=none;container=0;" parent="exvFrj0tK77b3cdCIxCv-1" vertex="1">
          <mxGeometry x="540" y="300" width="170" height="40" as="geometry" />
        </mxCell>
        <mxCell id="eZyuLgf-gwoOVG9-1C7c-4" value="&lt;font style=&quot;font-size: 16px;&quot;&gt;Switch to user model&lt;/font&gt;" style="rounded=1;whiteSpace=wrap;html=1;strokeColor=#994C00;strokeWidth=2;fontFamily=Courier New;fontSize=16;fontColor=default;fillColor=#FFCE9F;spacing=0;spacingBottom=0;glass=0;labelBackgroundColor=none;" parent="exvFrj0tK77b3cdCIxCv-1" vertex="1">
          <mxGeometry x="730" y="270" width="80" height="100" as="geometry" />
        </mxCell>
        <mxCell id="rOX40Qi3vSTlAglZggs9-1" value="" style="endArrow=oval;html=1;rounded=0;fontFamily=Courier New;fontSize=12;fontColor=default;strokeWidth=4;strokeColor=#003366;endFill=1;exitX=0.5;exitY=1;exitDx=0;exitDy=0;startArrow=oval;startFill=1;" parent="exvFrj0tK77b3cdCIxCv-1" edge="1">
          <mxGeometry width="50" height="50" relative="1" as="geometry">
            <mxPoint x="424.7" y="200" as="sourcePoint" />
            <mxPoint x="424.7" y="230" as="targetPoint" />
          </mxGeometry>
        </mxCell>
        <mxCell id="rOX40Qi3vSTlAglZggs9-2" value="" style="endArrow=oval;html=1;rounded=0;fontFamily=Courier New;fontSize=12;fontColor=default;strokeWidth=4;strokeColor=#003366;endFill=1;exitX=0.5;exitY=1;exitDx=0;exitDy=0;startArrow=oval;startFill=1;" parent="exvFrj0tK77b3cdCIxCv-1" edge="1">
          <mxGeometry width="50" height="50" relative="1" as="geometry">
            <mxPoint x="424.7" y="270" as="sourcePoint" />
            <mxPoint x="424.7" y="300" as="targetPoint" />
          </mxGeometry>
        </mxCell>
        <mxCell id="rOX40Qi3vSTlAglZggs9-3" value="" style="endArrow=oval;html=1;rounded=0;fontFamily=Courier New;fontSize=12;fontColor=default;strokeWidth=4;strokeColor=#003366;endFill=1;exitX=0.5;exitY=1;exitDx=0;exitDy=0;startArrow=oval;startFill=1;" parent="exvFrj0tK77b3cdCIxCv-1" edge="1">
          <mxGeometry width="50" height="50" relative="1" as="geometry">
            <mxPoint x="424.7" y="340" as="sourcePoint" />
            <mxPoint x="424.7" y="370" as="targetPoint" />
          </mxGeometry>
        </mxCell>
        <mxCell id="rOX40Qi3vSTlAglZggs9-4" value="" style="endArrow=oval;html=1;rounded=0;fontFamily=Courier New;fontSize=12;fontColor=default;strokeWidth=4;strokeColor=#003366;endFill=1;exitX=0.5;exitY=1;exitDx=0;exitDy=0;startArrow=oval;startFill=1;" parent="exvFrj0tK77b3cdCIxCv-1" edge="1">
          <mxGeometry width="50" height="50" relative="1" as="geometry">
            <mxPoint x="424.7" y="410" as="sourcePoint" />
            <mxPoint x="424.7" y="440" as="targetPoint" />
          </mxGeometry>
        </mxCell>
        <mxCell id="rOX40Qi3vSTlAglZggs9-5" value="" style="endArrow=block;html=1;rounded=0;fontFamily=Courier New;fontSize=12;fontColor=default;strokeWidth=4;strokeColor=#003366;endFill=1;exitX=0.5;exitY=1;exitDx=0;exitDy=0;startArrow=oval;startFill=1;" parent="exvFrj0tK77b3cdCIxCv-1" edge="1">
          <mxGeometry width="50" height="50" relative="1" as="geometry">
            <mxPoint x="424.7" y="480" as="sourcePoint" />
            <mxPoint x="424.7" y="510" as="targetPoint" />
          </mxGeometry>
        </mxCell>
        <mxCell id="szRxu2ozMODWLjFq8Y3A-8" value="RCU Code" style="rounded=1;whiteSpace=wrap;html=1;strokeColor=#003366;strokeWidth=2;fontFamily=Courier New;fontSize=15;fontColor=default;fillColor=#D4E1F5;spacing=0;spacingBottom=0;glass=0;labelBackgroundColor=none;" parent="exvFrj0tK77b3cdCIxCv-1" vertex="1">
          <mxGeometry x="340" y="370" width="170" height="40" as="geometry" />
        </mxCell>
        <mxCell id="szRxu2ozMODWLjFq8Y3A-9" value="System-call stub through a jump table" style="rounded=1;whiteSpace=wrap;html=1;strokeColor=#003366;strokeWidth=2;fontFamily=Courier New;fontSize=15;fontColor=default;fillColor=#D4E1F5;spacing=0;spacingBottom=0;glass=0;labelBackgroundColor=none;" parent="exvFrj0tK77b3cdCIxCv-1" vertex="1">
          <mxGeometry x="320" y="440" width="190" height="40" as="geometry" />
        </mxCell>
        <mxCell id="szRxu2ozMODWLjFq8Y3A-2" value="syscall" style="rounded=1;whiteSpace=wrap;html=1;strokeColor=#003366;strokeWidth=2;fontFamily=Courier New;fontSize=15;fontColor=default;fillColor=#D4E1F5;spacing=0;spacingBottom=0;glass=0;labelBackgroundColor=none;container=0;" parent="exvFrj0tK77b3cdCIxCv-1" vertex="1">
          <mxGeometry x="340" y="160" width="170" height="40" as="geometry" />
        </mxCell>
        <mxCell id="szRxu2ozMODWLjFq8Y3A-4" value="Stack Switch" style="rounded=1;whiteSpace=wrap;html=1;strokeColor=#003366;strokeWidth=2;fontFamily=Courier New;fontSize=15;fontColor=default;fillColor=#D4E1F5;spacing=0;spacingBottom=0;glass=0;labelBackgroundColor=none;container=0;" parent="exvFrj0tK77b3cdCIxCv-1" vertex="1">
          <mxGeometry x="340" y="230" width="170" height="40" as="geometry" />
        </mxCell>
        <mxCell id="szRxu2ozMODWLjFq8Y3A-6" value="Save Register&amp;nbsp; State" style="rounded=1;whiteSpace=wrap;html=1;strokeColor=#003366;strokeWidth=2;fontFamily=Courier New;fontSize=15;fontColor=default;fillColor=#D4E1F5;spacing=0;spacingBottom=0;glass=0;labelBackgroundColor=none;container=0;" parent="exvFrj0tK77b3cdCIxCv-1" vertex="1">
          <mxGeometry x="340" y="300" width="170" height="40" as="geometry" />
        </mxCell>
      </root>
    </mxGraphModel>
  </diagram>
  <diagram id="1RCJZQewaVn1q-mAoVzo" name="mode switch">
    <mxGraphModel dx="1178" dy="919" grid="1" gridSize="10" guides="1" tooltips="1" connect="1" arrows="1" fold="1" page="1" pageScale="1" pageWidth="1100" pageHeight="850" math="0" shadow="0">
      <root>
        <mxCell id="0" />
        <mxCell id="1" parent="0" />
        <mxCell id="BjWJUfp7VBVtxtLLcZCR-1" value="" style="endArrow=block;html=1;rounded=0;fontFamily=Courier New;fontSize=12;fontColor=default;strokeWidth=7;strokeColor=#204F6E;endFill=1;exitX=1;exitY=0.5;exitDx=0;exitDy=0;startArrow=oval;startFill=1;entryX=0;entryY=0.5;entryDx=0;entryDy=0;" edge="1" parent="1" source="VA4UsZFkZNbZzzTgxPzO-3" target="ChPZcSl8-GIZQLPwuVJf-1">
          <mxGeometry width="50" height="50" relative="1" as="geometry">
            <mxPoint x="625" y="160" as="sourcePoint" />
            <mxPoint x="625" y="110" as="targetPoint" />
          </mxGeometry>
        </mxCell>
        <mxCell id="BjWJUfp7VBVtxtLLcZCR-2" value="" style="endArrow=block;html=1;rounded=0;fontFamily=Courier New;fontSize=12;fontColor=default;strokeWidth=7;strokeColor=#204F6E;endFill=1;exitX=1;exitY=0.5;exitDx=0;exitDy=0;startArrow=oval;startFill=1;entryX=0;entryY=0.5;entryDx=0;entryDy=0;" edge="1" parent="1">
          <mxGeometry width="50" height="50" relative="1" as="geometry">
            <mxPoint x="400" y="359.5" as="sourcePoint" />
            <mxPoint x="460" y="359.5" as="targetPoint" />
          </mxGeometry>
        </mxCell>
        <mxCell id="BjWJUfp7VBVtxtLLcZCR-3" value="" style="endArrow=block;html=1;rounded=0;fontFamily=Courier New;fontSize=12;fontColor=default;strokeWidth=7;strokeColor=#204F6E;endFill=1;exitX=1;exitY=0.5;exitDx=0;exitDy=0;startArrow=oval;startFill=1;entryX=0;entryY=0.5;entryDx=0;entryDy=0;" edge="1" parent="1">
          <mxGeometry width="50" height="50" relative="1" as="geometry">
            <mxPoint x="620" y="359.5" as="sourcePoint" />
            <mxPoint x="680" y="359.5" as="targetPoint" />
          </mxGeometry>
        </mxCell>
        <mxCell id="BjWJUfp7VBVtxtLLcZCR-4" value="" style="endArrow=block;html=1;rounded=0;fontFamily=Courier New;fontSize=12;fontColor=default;strokeWidth=7;strokeColor=#204F6E;endFill=1;exitX=1;exitY=0.5;exitDx=0;exitDy=0;startArrow=oval;startFill=1;entryX=0;entryY=0.5;entryDx=0;entryDy=0;" edge="1" parent="1">
          <mxGeometry width="50" height="50" relative="1" as="geometry">
            <mxPoint x="840" y="359.5" as="sourcePoint" />
            <mxPoint x="900" y="359.5" as="targetPoint" />
          </mxGeometry>
        </mxCell>
        <mxCell id="ChPZcSl8-GIZQLPwuVJf-1" value="&lt;font style=&quot;font-size: 21px;&quot;&gt;Syscall&lt;/font&gt;" style="rounded=1;whiteSpace=wrap;html=1;strokeColor=#994C00;strokeWidth=3;fontFamily=Courier New;fontSize=21;fontColor=default;fillColor=#FFCE9F;spacing=0;spacingBottom=0;glass=0;labelBackgroundColor=none;fontStyle=0;dashed=1;dashPattern=1 1;" vertex="1" parent="1">
          <mxGeometry x="240" y="280" width="160" height="160" as="geometry" />
        </mxCell>
        <mxCell id="VA4UsZFkZNbZzzTgxPzO-3" value="&lt;font style=&quot;font-size: 21px;&quot;&gt;User Thread&lt;/font&gt;" style="rounded=1;whiteSpace=wrap;html=1;strokeColor=#003366;strokeWidth=3;fontFamily=Courier New;fontSize=21;fontColor=default;fillColor=#D4E1F5;spacing=0;spacingBottom=0;glass=0;labelBackgroundColor=none;fontStyle=0;dashed=1;dashPattern=1 1;" vertex="1" parent="1">
          <mxGeometry x="20" y="280" width="160" height="160" as="geometry" />
        </mxCell>
        <mxCell id="VA4UsZFkZNbZzzTgxPzO-4" value="User Thread" style="rounded=1;whiteSpace=wrap;html=1;strokeColor=#003366;strokeWidth=3;fontFamily=Courier New;fontSize=21;fontColor=default;fillColor=#D4E1F5;spacing=0;spacingBottom=0;glass=0;labelBackgroundColor=none;fontStyle=0;dashed=1;dashPattern=1 1;" vertex="1" parent="1">
          <mxGeometry x="460" y="280" width="160" height="160" as="geometry" />
        </mxCell>
        <mxCell id="VA4UsZFkZNbZzzTgxPzO-5" value="&lt;font style=&quot;font-size: 21px;&quot;&gt;Interrupt&lt;/font&gt;" style="rounded=1;whiteSpace=wrap;html=1;strokeColor=#994C00;strokeWidth=3;fontFamily=Courier New;fontSize=21;fontColor=default;fillColor=#FFCE9F;spacing=0;spacingBottom=0;glass=0;labelBackgroundColor=none;fontStyle=0;dashed=1;dashPattern=1 1;" vertex="1" parent="1">
          <mxGeometry x="680" y="280" width="160" height="160" as="geometry" />
        </mxCell>
        <mxCell id="VA4UsZFkZNbZzzTgxPzO-7" value="User Thread" style="rounded=1;whiteSpace=wrap;html=1;strokeColor=#003366;strokeWidth=3;fontFamily=Courier New;fontSize=21;fontColor=default;fillColor=#D4E1F5;spacing=0;spacingBottom=0;glass=0;labelBackgroundColor=none;fontStyle=0;dashed=1;dashPattern=1 1;" vertex="1" parent="1">
          <mxGeometry x="900" y="280" width="160" height="160" as="geometry" />
        </mxCell>
      </root>
    </mxGraphModel>
  </diagram>
  <diagram id="OTnXEslPpalcQbSVx76h" name="Models">
    <mxGraphModel dx="1178" dy="919" grid="1" gridSize="10" guides="1" tooltips="1" connect="1" arrows="1" fold="1" page="1" pageScale="1" pageWidth="1100" pageHeight="850" math="0" shadow="0">
      <root>
        <mxCell id="0" />
        <mxCell id="1" parent="0" />
        <mxCell id="7-yb1jbA3s81NQ-dUFg6-2" value="&lt;div style=&quot;text-align: center; font-size: 22px;&quot;&gt;&lt;span style=&quot;background-color: initial;&quot;&gt;&lt;b style=&quot;&quot;&gt;&lt;font style=&quot;font-size: 22px;&quot;&gt;User Execution&amp;nbsp;&lt;/font&gt;&lt;/b&gt;&lt;/span&gt;&lt;/div&gt;&lt;div style=&quot;text-align: center; font-size: 22px;&quot;&gt;&lt;span style=&quot;background-color: initial;&quot;&gt;&lt;b style=&quot;&quot;&gt;&lt;font style=&quot;font-size: 22px;&quot;&gt;Model&lt;/font&gt;&lt;/b&gt;&lt;/span&gt;&lt;/div&gt;&lt;font style=&quot;font-size: 18px;&quot;&gt;&lt;ul style=&quot;&quot;&gt;&lt;li&gt;&lt;span style=&quot;background-color: transparent;&quot;&gt;large, dynamically sized stacks&lt;/span&gt;&lt;/li&gt;&lt;li style=&quot;&quot;&gt;&lt;font style=&quot;font-size: 18px;&quot;&gt;&lt;span style=&quot;background-color: transparent;&quot;&gt;Thread local storage&lt;/span&gt;&lt;/font&gt;&lt;/li&gt;&lt;li style=&quot;&quot;&gt;&lt;font style=&quot;font-size: 18px;&quot;&gt;&lt;span style=&quot;background-color: transparent;&quot;&gt;Red Zone supported&lt;/span&gt;&lt;/font&gt;&lt;/li&gt;&lt;li style=&quot;&quot;&gt;&lt;font style=&quot;font-size: 18px;&quot;&gt;&lt;span style=&quot;background-color: transparent;&quot;&gt;Requires preemption&lt;/span&gt;&lt;/font&gt;&lt;/li&gt;&lt;li style=&quot;&quot;&gt;&lt;font style=&quot;font-size: 18px;&quot;&gt;&lt;span style=&quot;background-color: transparent;&quot;&gt;libc’s routines e.g., memcpy&lt;/span&gt;&lt;/font&gt;&lt;/li&gt;&lt;/ul&gt;&lt;/font&gt;" style="rounded=1;whiteSpace=wrap;html=1;strokeColor=#003366;strokeWidth=4;fontFamily=Courier New;fontSize=21;fontColor=default;fillColor=#D4E1F5;spacing=0;spacingBottom=36;glass=0;labelBackgroundColor=none;fontStyle=0;align=left;spacingRight=3;" vertex="1" parent="1">
          <mxGeometry x="100" y="230" width="290" height="290" as="geometry" />
        </mxCell>
        <mxCell id="7-yb1jbA3s81NQ-dUFg6-4" value="&lt;div style=&quot;font-size: 22px;&quot;&gt;&lt;span style=&quot;background-color: initial;&quot;&gt;&lt;b style=&quot;&quot;&gt;&lt;font style=&quot;font-size: 22px;&quot;&gt;Kernel Execution Model&lt;/font&gt;&lt;/b&gt;&lt;/span&gt;&lt;/div&gt;&lt;font style=&quot;font-size: 18px;&quot;&gt;&lt;ul&gt;&lt;li style=&quot;text-align: left;&quot;&gt;&lt;font style=&quot;font-size: 18px;&quot;&gt;&lt;span style=&quot;background-color: transparent;&quot;&gt;fixed sized pinned stacks&lt;/span&gt;&lt;/font&gt;&lt;/li&gt;&lt;li style=&quot;text-align: left;&quot;&gt;&lt;font style=&quot;font-size: 18px;&quot;&gt;&lt;span style=&quot;background-color: transparent;&quot;&gt;Per CPU memory&lt;/span&gt;&lt;/font&gt;&lt;/li&gt;&lt;li style=&quot;text-align: left;&quot;&gt;&lt;font style=&quot;font-size: 18px;&quot;&gt;&lt;span style=&quot;background-color: transparent;&quot;&gt;Red Zone not supported&lt;/span&gt;&lt;/font&gt;&lt;/li&gt;&lt;li style=&quot;text-align: left;&quot;&gt;&lt;font style=&quot;font-size: 18px;&quot;&gt;&lt;span style=&quot;background-color: transparent;&quot;&gt;Can execute non-preemptible&lt;/span&gt;&lt;/font&gt;&lt;/li&gt;&lt;li style=&quot;text-align: left;&quot;&gt;&lt;font style=&quot;font-size: 18px;&quot;&gt;&lt;span style=&quot;background-color: transparent;&quot;&gt;RCU handling&lt;/span&gt;&lt;/font&gt;&lt;/li&gt;&lt;li style=&quot;text-align: left;&quot;&gt;&lt;font style=&quot;font-size: 18px;&quot;&gt;&lt;span style=&quot;background-color: transparent;&quot;&gt;kernel routines e.g., memcpy&lt;/span&gt;&lt;/font&gt;&lt;/li&gt;&lt;/ul&gt;&lt;/font&gt;" style="rounded=1;whiteSpace=wrap;html=1;strokeColor=#994C00;strokeWidth=4;fontFamily=Courier New;fontSize=21;fontColor=default;fillColor=#FFCE9F;spacing=0;spacingBottom=0;glass=0;labelBackgroundColor=none;fontStyle=0;align=center;spacingRight=13;" vertex="1" parent="1">
          <mxGeometry x="650" y="230" width="290" height="290" as="geometry" />
        </mxCell>
        <mxCell id="7-yb1jbA3s81NQ-dUFg6-5" value="Privilege Level&lt;br&gt;&lt;br&gt;Execution Model" style="rounded=1;whiteSpace=wrap;html=1;strokeColor=#006633;strokeWidth=4;fontFamily=Courier New;fontSize=21;fontColor=default;fillColor=#D5E8D4;spacing=0;spacingBottom=0;glass=0;labelBackgroundColor=none;fontStyle=0;align=center;spacingRight=0;" vertex="1" parent="1">
          <mxGeometry x="450" y="290" width="140" height="170" as="geometry" />
        </mxCell>
        <mxCell id="7-yb1jbA3s81NQ-dUFg6-6" value="" style="endArrow=block;startArrow=block;html=1;rounded=0;fontFamily=Courier New;fontSize=12;fontColor=default;entryX=0;entryY=0.5;entryDx=0;entryDy=0;exitX=1;exitY=0.5;exitDx=0;exitDy=0;strokeWidth=5;startFill=1;endFill=1;strokeColor=#1A4059;" edge="1" parent="1" source="7-yb1jbA3s81NQ-dUFg6-2" target="7-yb1jbA3s81NQ-dUFg6-5">
          <mxGeometry width="50" height="50" relative="1" as="geometry">
            <mxPoint x="520" y="490" as="sourcePoint" />
            <mxPoint x="570" y="440" as="targetPoint" />
          </mxGeometry>
        </mxCell>
        <mxCell id="7-yb1jbA3s81NQ-dUFg6-7" value="" style="endArrow=block;startArrow=block;html=1;rounded=0;fontFamily=Courier New;fontSize=12;fontColor=default;entryX=0;entryY=0.5;entryDx=0;entryDy=0;exitX=1;exitY=0.5;exitDx=0;exitDy=0;strokeWidth=5;startFill=1;endFill=1;strokeColor=#1A4059;" edge="1" parent="1">
          <mxGeometry width="50" height="50" relative="1" as="geometry">
            <mxPoint x="590" y="374.5" as="sourcePoint" />
            <mxPoint x="650" y="374.5" as="targetPoint" />
          </mxGeometry>
        </mxCell>
      </root>
    </mxGraphModel>
  </diagram>
  <diagram id="lOLkh4GlByHtkHwG6hm9" name="Circles">
    <mxGraphModel dx="1306" dy="919" grid="1" gridSize="10" guides="1" tooltips="1" connect="1" arrows="1" fold="1" page="1" pageScale="1" pageWidth="1100" pageHeight="850" math="0" shadow="0">
      <root>
        <mxCell id="0" />
        <mxCell id="1" style="locked=1;" parent="0" />
        <mxCell id="Y5dEnymK3RKa9dn0Ixgo-22" value="Linux" style="locked=1;" parent="0" />
        <mxCell id="Y5dEnymK3RKa9dn0Ixgo-23" value="" style="ellipse;whiteSpace=wrap;html=1;aspect=fixed;rounded=1;strokeColor=none;strokeWidth=1.5;fontFamily=Courier New;fontSize=12;fontColor=default;fillColor=#FFD966;opacity=70;" parent="Y5dEnymK3RKa9dn0Ixgo-22" vertex="1">
          <mxGeometry x="230" y="130" width="565" height="565" as="geometry" />
        </mxCell>
        <mxCell id="Y5dEnymK3RKa9dn0Ixgo-25" value="&lt;font style=&quot;font-size: 25px;&quot;&gt;&lt;b style=&quot;font-size: 25px;&quot;&gt;Sets of Applications&lt;/b&gt;&lt;/font&gt;" style="text;html=1;align=center;verticalAlign=middle;resizable=0;points=[];autosize=1;strokeColor=none;fillColor=none;fontSize=25;fontFamily=Courier New;fontColor=default;" parent="Y5dEnymK3RKa9dn0Ixgo-22" vertex="1">
          <mxGeometry x="350" y="70" width="320" height="40" as="geometry" />
        </mxCell>
        <mxCell id="Y5dEnymK3RKa9dn0Ixgo-26" value="" style="endArrow=none;html=1;rounded=0;fontFamily=Courier New;fontSize=12;fontColor=default;strokeWidth=4;exitX=1;exitY=0;exitDx=0;exitDy=0;strokeColor=#FFD966;startArrow=oval;startFill=1;" parent="Y5dEnymK3RKa9dn0Ixgo-22" source="Y5dEnymK3RKa9dn0Ixgo-23" edge="1">
          <mxGeometry width="50" height="50" relative="1" as="geometry">
            <mxPoint x="740" y="200" as="sourcePoint" />
            <mxPoint x="960" y="180" as="targetPoint" />
            <Array as="points">
              <mxPoint x="740" y="180" />
            </Array>
          </mxGeometry>
        </mxCell>
        <mxCell id="Y5dEnymK3RKa9dn0Ixgo-35" value="&lt;font style=&quot;font-size: 18px;&quot;&gt;Compatible with Linux&lt;/font&gt;" style="text;html=1;align=center;verticalAlign=middle;resizable=0;points=[];autosize=1;strokeColor=none;fillColor=none;fontSize=12;fontFamily=Courier New;fontColor=default;" parent="Y5dEnymK3RKa9dn0Ixgo-22" vertex="1">
          <mxGeometry x="720" y="150" width="250" height="40" as="geometry" />
        </mxCell>
        <mxCell id="Y5dEnymK3RKa9dn0Ixgo-36" value="expand" style="locked=1;" parent="0" visible="0" />
        <mxCell id="Y5dEnymK3RKa9dn0Ixgo-37" value="" style="ellipse;whiteSpace=wrap;html=1;aspect=fixed;rounded=1;strokeColor=none;strokeWidth=1.5;fontFamily=Courier New;fontSize=12;fontColor=default;fillColor=#FF3333;opacity=50;" parent="Y5dEnymK3RKa9dn0Ixgo-36" vertex="1">
          <mxGeometry x="280" y="220" width="270" height="270" as="geometry" />
        </mxCell>
        <mxCell id="Z-1i60j4brALPkMfHfX2-1" value="&lt;font style=&quot;font-size: 18px;&quot;&gt;Expand Outward&lt;/font&gt;" style="text;html=1;align=center;verticalAlign=middle;resizable=0;points=[];autosize=1;strokeColor=none;fillColor=none;fontSize=12;fontFamily=Courier New;fontColor=default;" parent="Y5dEnymK3RKa9dn0Ixgo-36" vertex="1">
          <mxGeometry x="340" y="190" width="170" height="40" as="geometry" />
        </mxCell>
        <mxCell id="Z-1i60j4brALPkMfHfX2-2" value="" style="endArrow=classic;html=1;rounded=0;fontFamily=Courier New;fontSize=12;fontColor=default;strokeWidth=3;strokeColor=#4F0000;dashed=1;" parent="Y5dEnymK3RKa9dn0Ixgo-36" edge="1">
          <mxGeometry width="50" height="50" relative="1" as="geometry">
            <mxPoint x="390" y="320" as="sourcePoint" />
            <mxPoint x="330" y="260" as="targetPoint" />
          </mxGeometry>
        </mxCell>
        <mxCell id="Z-1i60j4brALPkMfHfX2-3" value="" style="endArrow=classic;html=1;rounded=0;fontFamily=Courier New;fontSize=12;fontColor=default;exitX=0;exitY=0.5;exitDx=0;exitDy=0;strokeWidth=3;strokeColor=#4F0000;dashed=1;" parent="Y5dEnymK3RKa9dn0Ixgo-36" edge="1">
          <mxGeometry width="50" height="50" relative="1" as="geometry">
            <mxPoint x="370" y="365" as="sourcePoint" />
            <mxPoint x="317" y="348" as="targetPoint" />
          </mxGeometry>
        </mxCell>
        <mxCell id="Z-1i60j4brALPkMfHfX2-4" value="" style="endArrow=classic;html=1;rounded=0;fontFamily=Courier New;fontSize=12;fontColor=default;exitX=0.408;exitY=0.008;exitDx=0;exitDy=0;strokeColor=#4F0000;strokeWidth=3;dashed=1;exitPerimeter=0;" parent="Y5dEnymK3RKa9dn0Ixgo-36" edge="1">
          <mxGeometry width="50" height="50" relative="1" as="geometry">
            <mxPoint x="423" y="301" as="sourcePoint" />
            <mxPoint x="411" y="245" as="targetPoint" />
          </mxGeometry>
        </mxCell>
        <mxCell id="Y5dEnymK3RKa9dn0Ixgo-46" value="Unikernel" style="locked=1;" parent="0" visible="0" />
        <mxCell id="Y5dEnymK3RKa9dn0Ixgo-48" value="" style="ellipse;whiteSpace=wrap;html=1;aspect=fixed;rounded=1;strokeColor=none;strokeWidth=1.5;fontFamily=Courier New;fontSize=12;fontColor=default;fillColor=#820000;opacity=90;" parent="Y5dEnymK3RKa9dn0Ixgo-46" vertex="1">
          <mxGeometry x="370" y="300" width="130" height="130" as="geometry" />
        </mxCell>
        <mxCell id="Z-1i60j4brALPkMfHfX2-5" value="" style="endArrow=none;html=1;rounded=0;fontFamily=Courier New;fontSize=12;fontColor=default;strokeWidth=4;strokeColor=#800000;exitX=0.952;exitY=0.287;exitDx=0;exitDy=0;startArrow=oval;startFill=1;exitPerimeter=0;" parent="Y5dEnymK3RKa9dn0Ixgo-46" edge="1">
          <mxGeometry width="50" height="50" relative="1" as="geometry">
            <mxPoint x="470" y="307" as="sourcePoint" />
            <mxPoint x="960" y="270" as="targetPoint" />
            <Array as="points">
              <mxPoint x="503" y="270" />
            </Array>
          </mxGeometry>
        </mxCell>
        <mxCell id="Z-1i60j4brALPkMfHfX2-6" value="&lt;font style=&quot;font-size: 18px;&quot;&gt;Apps&amp;nbsp;&lt;span style=&quot;background-color: initial;&quot;&gt;Unikernels&amp;nbsp;Run&lt;/span&gt;&lt;br&gt;&lt;/font&gt;" style="text;html=1;align=left;verticalAlign=middle;resizable=0;points=[];autosize=1;strokeColor=none;fillColor=none;fontSize=18;fontFamily=Courier New;fontColor=default;" parent="Y5dEnymK3RKa9dn0Ixgo-46" vertex="1">
          <mxGeometry x="750" y="240" width="230" height="40" as="geometry" />
        </mxCell>
        <mxCell id="cbDa-1a2EkvhVl4dcUo--1" value="UKL Base" style="" parent="0" />
        <mxCell id="cbDa-1a2EkvhVl4dcUo--3" value="&lt;font style=&quot;font-size: 18px;&quot;&gt;UKL Base Model&lt;/font&gt;" style="text;html=1;align=center;verticalAlign=middle;resizable=0;points=[];autosize=1;strokeColor=none;fillColor=none;fontSize=12;fontFamily=Courier New;fontColor=default;" parent="cbDa-1a2EkvhVl4dcUo--1" vertex="1">
          <mxGeometry x="800" y="210" width="170" height="40" as="geometry" />
        </mxCell>
        <mxCell id="Z-1i60j4brALPkMfHfX2-8" value="" style="ellipse;whiteSpace=wrap;html=1;aspect=fixed;rounded=1;strokeColor=none;strokeWidth=1.5;fontFamily=Courier New;fontSize=12;fontColor=default;fillColor=#FF3333;opacity=30;" parent="cbDa-1a2EkvhVl4dcUo--1" vertex="1">
          <mxGeometry x="290" y="220" width="455" height="455" as="geometry" />
        </mxCell>
        <mxCell id="cbDa-1a2EkvhVl4dcUo--2" value="" style="endArrow=none;html=1;rounded=0;fontFamily=Courier New;fontSize=12;fontColor=default;strokeWidth=4;exitX=1;exitY=0;exitDx=0;exitDy=0;strokeColor=#ffa061;startArrow=oval;startFill=1;" parent="cbDa-1a2EkvhVl4dcUo--1" edge="1">
          <mxGeometry width="50" height="50" relative="1" as="geometry">
            <mxPoint x="670" y="273" as="sourcePoint" />
            <mxPoint x="960" y="240" as="targetPoint" />
            <Array as="points">
              <mxPoint x="698" y="240" />
            </Array>
          </mxGeometry>
        </mxCell>
        <mxCell id="cbDa-1a2EkvhVl4dcUo--5" value="UKL Bypass" style="" parent="0" />
        <mxCell id="cbDa-1a2EkvhVl4dcUo--6" value="" style="ellipse;whiteSpace=wrap;html=1;aspect=fixed;rounded=1;strokeColor=none;strokeWidth=1.5;fontFamily=Courier New;fontSize=12;fontColor=default;fillColor=#CC0000;opacity=40;" parent="cbDa-1a2EkvhVl4dcUo--5" vertex="1">
          <mxGeometry x="343" y="229" width="360" height="360" as="geometry" />
        </mxCell>
        <mxCell id="cbDa-1a2EkvhVl4dcUo--8" value="&lt;font style=&quot;font-size: 18px;&quot;&gt;UKL Bypass&lt;/font&gt;" style="text;html=1;align=center;verticalAlign=middle;resizable=0;points=[];autosize=1;strokeColor=none;fillColor=none;fontSize=12;fontFamily=Courier New;fontColor=default;" parent="cbDa-1a2EkvhVl4dcUo--5" vertex="1">
          <mxGeometry x="840" y="290" width="130" height="40" as="geometry" />
        </mxCell>
        <mxCell id="Z-1i60j4brALPkMfHfX2-9" value="" style="endArrow=none;html=1;rounded=0;fontFamily=Courier New;fontSize=12;fontColor=default;strokeWidth=4;strokeColor=#DE673F;startArrow=oval;startFill=1;exitX=1;exitY=0.54;exitDx=0;exitDy=0;exitPerimeter=0;" parent="cbDa-1a2EkvhVl4dcUo--5" edge="1">
          <mxGeometry width="50" height="50" relative="1" as="geometry">
            <mxPoint x="696" y="354" as="sourcePoint" />
            <mxPoint x="960" y="323" as="targetPoint" />
            <Array as="points">
              <mxPoint x="726" y="323" />
            </Array>
          </mxGeometry>
        </mxCell>
        <mxCell id="cbDa-1a2EkvhVl4dcUo--9" value="UKL Shortcut" style="" parent="0" />
        <mxCell id="cbDa-1a2EkvhVl4dcUo--10" value="" style="ellipse;whiteSpace=wrap;html=1;aspect=fixed;rounded=1;strokeColor=none;strokeWidth=1.5;fontFamily=Courier New;fontSize=12;fontColor=default;fillColor=#CC0000;opacity=80;" parent="cbDa-1a2EkvhVl4dcUo--9" vertex="1">
          <mxGeometry x="500" y="350" width="180" height="180" as="geometry" />
        </mxCell>
        <mxCell id="cbDa-1a2EkvhVl4dcUo--11" value="" style="endArrow=none;html=1;rounded=0;fontFamily=Courier New;fontSize=12;fontColor=default;strokeWidth=4;strokeColor=#B50000;startArrow=oval;startFill=1;exitX=1;exitY=0.54;exitDx=0;exitDy=0;exitPerimeter=0;" parent="cbDa-1a2EkvhVl4dcUo--9" edge="1">
          <mxGeometry width="50" height="50" relative="1" as="geometry">
            <mxPoint x="680" y="431" as="sourcePoint" />
            <mxPoint x="960" y="400.5" as="targetPoint" />
            <Array as="points">
              <mxPoint x="710" y="400" />
            </Array>
          </mxGeometry>
        </mxCell>
        <mxCell id="cbDa-1a2EkvhVl4dcUo--12" value="&lt;font style=&quot;font-size: 18px;&quot;&gt;UKL Shortcut&lt;/font&gt;" style="text;html=1;align=center;verticalAlign=middle;resizable=0;points=[];autosize=1;strokeColor=none;fillColor=none;fontSize=12;fontFamily=Courier New;fontColor=default;" parent="cbDa-1a2EkvhVl4dcUo--9" vertex="1">
          <mxGeometry x="820" y="370" width="150" height="40" as="geometry" />
        </mxCell>
        <mxCell id="cbDa-1a2EkvhVl4dcUo--13" value="Narrow" parent="0" />
        <mxCell id="cbDa-1a2EkvhVl4dcUo--14" value="" style="endArrow=classic;html=1;rounded=0;fontFamily=Courier New;fontSize=12;fontColor=default;strokeWidth=3;strokeColor=#660000;dashed=1;" parent="cbDa-1a2EkvhVl4dcUo--13" edge="1">
          <mxGeometry width="50" height="50" relative="1" as="geometry">
            <mxPoint x="520" y="690" as="sourcePoint" />
            <mxPoint x="520" y="590" as="targetPoint" />
          </mxGeometry>
        </mxCell>
        <mxCell id="cbDa-1a2EkvhVl4dcUo--15" value="" style="endArrow=classic;html=1;rounded=0;fontFamily=Courier New;fontSize=12;fontColor=default;strokeWidth=3;strokeColor=#660000;dashed=1;" parent="cbDa-1a2EkvhVl4dcUo--13" edge="1">
          <mxGeometry width="50" height="50" relative="1" as="geometry">
            <mxPoint x="520" y="588" as="sourcePoint" />
            <mxPoint x="520" y="520" as="targetPoint" />
          </mxGeometry>
        </mxCell>
        <mxCell id="cbDa-1a2EkvhVl4dcUo--17" value="&lt;font style=&quot;font-size: 17px;&quot;&gt;Narrowing In&amp;nbsp;&lt;/font&gt;" style="text;html=1;align=center;verticalAlign=middle;resizable=0;points=[];autosize=1;strokeColor=none;fillColor=none;fontSize=12;fontFamily=Courier New;fontColor=default;" parent="cbDa-1a2EkvhVl4dcUo--13" vertex="1">
          <mxGeometry x="440" y="700" width="160" height="30" as="geometry" />
        </mxCell>
      </root>
    </mxGraphModel>
  </diagram>
</mxfile>
